<svg xmlns="http://www.w3.org/2000/svg" width="1899.978" height="1899.978" viewBox="0 0 1899.978 1899.792" stroke="none"
     fill="white" stroke-linecap="round" stroke-linejoin="round" xmlns:v="https://vecta.io/nano">
    <path d="M1571.14 230.651l47.708 44.887c13.021 12.818 25.374 26.324 37.82 39.714 8.096 8.71 16.094 17.538 23.661 26.706 10.392 12.59 20.664 25.306 30.38 38.419 10.415 14.056 20.511 28.383 30.042 43.049 11.727 18.045 22.924 36.444 33.972 54.917 7.718 12.905 15.334 25.924 22.031 39.373 8.236 16.54 15.805 33.438 23.044 50.444 7.537 17.706 14.768 35.57 21.344 53.651 7.225 19.866 14.054 39.908 20.119 60.154 5.529 18.457 9.983 37.245 14.569 55.971 3.31 13.515 6.325 27.115 8.969 40.774 1.811 9.355 2.695 18.887 4.108 28.323l4.92 31.939c.996 7.513 1.498 15.099 2.042 22.664l3.03 44.755c.276 4.032.929 8.057.946 12.086l-.044 66.498c-.163 11.731-1.094 23.46-1.955 35.169-.792 10.768-1.701 21.54-3.027 32.251-1.344 10.849-3.309 21.621-4.915 32.439-1.401 9.438-2.31 18.964-4.098 28.325-2.937 15.381-6.23 30.7-9.706 45.969-3.527 15.497-7.148 30.985-11.306 46.321-3.437 12.676-7.331 25.259-11.703 37.643-9.645 27.322-18.614 54.963-29.935 81.591-10.911 25.663-24.117 50.379-36.926 75.195-7.471 14.473-15.778 28.551-24.364 42.401-11.3 18.228-22.73 36.418-35.053 53.957-12.798 18.216-26.471 35.839-40.253 53.333-9.311 11.819-19.064 23.35-29.344 34.332-18.659 19.935-37.408 39.828-56.985 58.847-13.818 13.424-28.972 25.49-43.698 37.962-23.924 20.261-48.881 39.152-75.176 56.265-14.992 9.757-29.559 20.192-44.798 29.536-11.587 7.105-23.874 13.085-35.956 19.361-15.626 8.116-31.138 16.501-47.102 23.902-17.874 8.287-36.076 15.903-54.361 23.252-16.864 6.778-33.792 13.557-51.11 19.006-26.157 8.229-52.588 15.636-79.078 22.739-15.094 4.047-30.486 7.054-45.84 10.042-10.888 2.119-21.923 3.508-32.915 5.065l-37.431 4.973c-7.859.932-15.765 1.559-23.668 2.011l-42.17 1.978-68.583.948c-11.725-.026-23.474-.926-35.165-1.96-15.502-1.372-30.957-3.272-46.435-4.922l-19.666-2.04-27.837-4.023c-10.049-1.746-20.112-3.568-30.006-6.015l-77.76-19.867c-30.391-7.909-59.777-18.796-88.732-30.813-18.63-7.733-37.189-15.713-55.361-24.454-17.823-8.573-35.433-17.699-52.563-27.578-22.539-12.998-44.826-26.494-66.634-40.679-16.166-10.515-31.565-22.246-46.985-33.86-10.9-8.209-21.586-16.766-31.797-25.811l-56.595-51.637c-13.068-12.42-25.549-25.493-37.778-38.749-10.655-11.549-20.937-23.484-30.754-35.752-12.135-15.164-23.925-30.628-35.295-46.374-10.116-14.009-19.791-28.367-29.048-42.959-9.834-15.503-19.031-31.415-28.346-47.243-6.375-10.833-12.864-21.628-18.588-32.806-5.825-11.372-10.769-23.195-16.111-34.815-3.99-8.681-8.341-17.215-11.921-26.061-5.95-14.704-11.563-29.551-17.026-44.445-3.931-10.718-7.706-21.513-10.986-32.444l-20.922-72.319c-4.415-16.616-7.865-33.518-11.022-50.427-2.594-13.894-4.266-27.968-6.081-41.997l-4.977-42.929c-1.295-13.39-2.615-26.818-2.949-40.254l-.957-85.581c.101-14.425 1.666-28.854 2.896-43.253 1.079-12.636 2.274-25.281 4.038-37.834 1.933-13.756 4.5-27.426 6.931-41.109 2.23-12.552 4.108-25.2 7.094-37.576 5.541-22.968 11.626-45.808 17.758-68.629 8.264-30.753 18.78-60.758 31.122-90.102 7.045-16.75 14.195-33.476 21.973-49.892 8.394-17.716 16.937-35.42 26.579-52.471 11.806-20.88 24.339-41.391 37.448-61.48 13.174-20.189 27.167-39.864 41.343-59.371 7.373-10.146 15.635-19.692 23.988-29.071l50.622-55.491c14.18-14.708 29.35-28.473 44.282-42.441 8.197-7.668 16.675-15.052 25.27-22.272 8.591-7.216 17.319-14.291 26.286-21.031l43.766-31.962c14.028-9.726 28.41-18.963 42.883-28.021 11.193-7.005 22.503-13.914 34.228-19.961l73.384-36.48c36.238-16.893 73.862-30.39 112.074-41.999 23.639-7.182 47.795-12.71 71.824-18.546 15.514-3.768 31.163-7.046 46.857-9.975 10.175-1.899 20.524-2.934 30.827-4.067l40.84-4.015c12.409-1.116 24.82-2.539 37.258-2.914C925.304.297 949.008-.08 972.702.014c15.059.06 30.125 1.036 45.168 1.946 11.604.702 23.208 1.658 34.752 3.012 14.539 1.705 29.018 3.928 43.522 5.929 29.256 4.037 58.085 10.147 86.537 18.02 20.323 5.623 40.845 10.68 60.826 17.348 25.569 8.533 50.79 18.154 75.946 27.863 11.909 4.596 23.43 10.259 34.929 15.845 14.305 6.95 28.544 14.061 42.565 21.563 29.269 15.659 58.25 31.858 85.257 51.26l57.415 42.437c10.665 8.069 20.863 16.755 31.521 25.414m-6.25 218.75c-11.349-13.349-22.257-27.107-34.165-39.936-13.01-14.017-26.518-27.638-40.585-40.589-17.556-16.163-35.555-31.892-54.025-46.999-14.231-11.64-29.143-22.534-44.376-32.837-15.754-10.656-31.987-20.681-48.511-30.103-18.94-10.799-38.1-21.331-57.778-30.687-19.726-9.379-39.934-17.912-60.432-25.454-23.751-8.74-47.746-17.14-72.19-23.58-25.585-6.741-51.768-11.307-77.808-16.194-15.91-2.986-31.997-5.197-48.089-6.998-14.186-1.588-28.485-2.874-42.742-2.966-29.357-.189-58.721.473-88.08.881-4.699.065-9.406.488-14.083.99l-34.844 3.979c-8.256.966-16.576 1.6-24.74 3.084-12.79 2.325-25.52 5.037-38.189 7.96-17.156 3.957-34.372 7.771-51.301 12.567-17.229 4.88-34.417 10.157-51.127 16.555-23.86 9.136-47.505 18.927-70.787 29.445-15.894 7.181-31.138 15.849-46.437 24.282-13.063 7.201-26.016 14.655-38.618 22.629-27.224 17.228-53.49 35.825-77.96 56.851l-36.748 31.894c-9.194 8.407-17.711 17.554-26.529 26.373-4.714 4.714-9.737 9.16-14.083 14.192l-38.165 45.192c-9.224 11.361-18.125 23.025-26.506 35.017-8.693 12.437-16.856 25.268-24.761 38.227-9.386 15.386-18.895 30.758-27.176 46.744-10.347 19.976-19.897 40.394-29.03 60.959-6.681 15.045-12.726 30.435-17.989 46.031-7.168 21.241-13.695 42.719-19.775 64.298-3.809 13.518-6.48 27.372-9.305 41.148-1.998 9.741-3.433 19.599-5.055 29.416l-5.934 37.021c-1.368 10.035-2.3 20.144-3.018 30.25-.903 12.706-2.024 25.448-1.921 38.165.195 24.06 1.086 48.117 1.915 72.167.359 10.401 1.255 20.784 1.963 31.171.241 3.535.488 7.083 1.016 10.582l4.959 31.433c1.384 8.94 2.254 17.982 4.112 26.819 2.595 12.342 5.985 24.514 8.881 36.796 7.009 29.724 16.232 58.712 26.801 87.387 9.723 26.38 21.16 51.93 33.289 77.212 4.481 9.339 9.585 18.399 14.754 27.385 8.915 15.499 17.662 31.121 27.275 46.185 16.826 26.366 34.898 51.875 55.408 75.566 10.834 12.515 21.018 25.679 32.672 37.378 19.787 19.864 40.327 38.994 60.908 58.045 9.941 9.202 20.315 18.038 31.174 26.125 16.442 12.244 33.144 24.208 50.354 35.333 18.818 12.164 38.118 23.631 57.632 34.65 13.556 7.655 27.713 14.287 41.815 20.921 13.095 6.16 26.22 12.411 39.784 17.389 24.182 8.874 48.518 17.427 73.136 24.984 25.689 7.886 51.896 13.964 78.488 18.171l50.197 7.903c10.85 1.496 21.808 2.353 32.747 3.03 14.874.921 29.771 1.78 44.667 1.954 14.522.169 29.056-.503 43.582-.921 5.034-.145 10.063-.572 15.085-.982l47.839-4.02c9.101-.826 18.262-1.471 27.239-3.076 16.519-2.955 33.025-6.127 49.349-10.002 20.107-4.773 40.132-9.975 59.984-15.715 14.215-4.11 28.277-8.915 42.065-14.29 20.797-8.107 41.519-16.483 61.865-25.65 28.405-12.797 55.564-28.071 82.118-44.331 13.646-8.356 27.029-17.237 39.907-26.727 15.956-11.758 31.459-24.157 46.796-36.721 12.8-10.486 25.495-21.169 37.496-32.546 23.877-22.636 46.394-46.607 67.239-72.096 7.909-9.67 16.056-19.2 23.245-29.392 11.946-16.935 23.691-34.053 34.622-51.652 11.383-18.327 22.166-37.065 32.374-56.073 14.086-26.228 26.506-53.283 36.3-81.443 8.465-24.34 17.629-48.511 24.522-73.302 7.467-26.854 14.05-54.034 17.372-81.864 1.88-15.753 4.921-31.368 6.813-47.12 1.523-12.689 2.294-25.48 3.047-38.246.62-10.511.964-21.052.986-31.581.018-9.027-.541-18.058-.939-27.084l-2.051-42.166c-.675-10.273-1.79-20.525-2.978-30.755-1.139-9.803-2.358-19.611-4.018-29.336-2.781-16.294-5.431-32.638-9.07-48.75-4.454-19.718-9.272-39.397-15.048-58.76-5.151-17.267-11.233-34.318-17.962-51.038-9.655-23.993-20.013-47.715-30.593-71.318-4.86-10.843-10.803-21.216-16.547-31.642-5.321-9.659-10.711-19.307-16.641-28.596-10.125-15.863-20.406-31.644-31.179-47.07-7.483-10.714-15.901-20.774-23.901-32.126m-395.5 1293.5c7.16 6.826 13.963 14.086 21.591 20.342 6.131 5.029 12.972 9.395 20.02 13.05 8.248 4.278 15.38.999 17.95-8.06l16.888-62.415c1.221-4.625-1.561-10.901-5.135-12.917-5.957-3.359-10.985-2.867-15.755 1.392-1.155 1.032-2.484 2.076-3.919 2.553l-25.125 8.07c-6.232 2.034-12.397 4.002-18.941 1.063-.82-.368-2.239.11-3.179.589-3.307 1.685-6.584 3.445-9.764 5.358-3.481 2.094-7.182 4.01-10.175 6.687-4.443 3.974-4.424 9.94.248 13.802 4.565 3.773 9.835 6.692 15.296 10.486m-516.5-1557.5c6.254 5.458 13.891 4.064 18.752.364 2.944-2.241 6.201-4.314 9.639-5.603 5.49-2.058 11.161-3.92 16.92-4.897 5.526-.938 10.663-4.916 16.717-2.381 5.821 2.438 10.372.267 14.565-3.914 1.195-1.192 3.714-1.006 5.023-2.145 3.631-3.161 8.007-6.144 10.091-10.219 2.177-4.257-1.015-8.437-4.786-11.199-1.977-1.449-4.616-2.056-6.444-3.636-9.095-7.857-17.751-16.243-27.094-23.783-6.693-5.401-13.963-10.231-21.459-14.455-7.472-4.211-15.981-.519-18.376 8.342l-14.576 54.406c-1.713 6.306-3.409 12.518 1.027 19.122m90 1546c4.231-7.091.095-16.34-8.1-18.569-2.336-.635-4.62-1.851-6.623-3.241-4.336-3.009-8.666-4.975-13.995-2.552-1.388.631-3.201 1.101-4.612.769-4.814-1.133-9.566-2.561-14.286-4.051-9.576-3.022-19.26-5.421-27.704-11.639-4.875-3.59-14.373-1.73-16.463 6.277-1.089 4.172-.708 9.118.337 13.39 4.201 17.179 8.755 34.278 13.555 51.301 1.307 4.634 1.743 9.865 6.846 12.896 7.375 4.379 13.36.663 19.202-2.85 12.443-7.484 22.763-17.583 32.946-27.803 1.246-1.251 2.637-2.385 4.076-3.41l14.821-10.517m483.5-1544.5c7.921 4.726 16.312 1.959 18.56-6.805.959-3.737.421-8.181-.534-12.032l-13.488-51.812c-3.551-14.005-11.343-18.066-23.734-11.052-9.108 5.155-16.99 11.925-24.583 19.213-7.924 7.606-15.417 15.802-25.811 20.664-7.123 3.332-8.658 12.241-2.063 17.044 4.511 3.285 9.766 5.555 14.242 8.88 3.688 2.74 7.108 3.679 11.428 1.969 1.854-.734 4.136-1.299 6.005-.905 4.524.954 8.994 2.312 13.352 3.878 8.829 3.172 18.679 3.833 26.626 10.957m367 1343c-1.5-2.71-3.286-5.302-4.452-8.149l-17.145-42.363c-1.437-3.422-3.662-6.749-6.259-9.4-4.931-5.032-16.463-.459-21.213 5.991l-33.049 45.314c-1.986 2.834-2.902 7.258-2.511 10.746.908 8.1 10.012 12.375 18.696 12.904 7.564.46 15.114 1.214 22.656 1.974l37.825 3.894c4.761.404 9.205-3.958 8.814-8.651-.331-3.972-1.862-7.844-3.362-12.26m-20-1200l-16.143 1.995-34.278 4.022c-13.126 1.628-18.415 13.065-10.854 23.651 5.713 7.999 11.704 15.8 17.613 23.659 6.205 8.253 11.398 17.667 18.974 24.386 8.546 7.58 18.065 6.412 22.26-4.828 5.374-14.4 11.114-28.67 17.005-42.867 2.239-5.395 5.476-10.368 8.002-15.655 2.391-5.003 1.038-11.252-2.877-13.321-6.015-3.179-12.355-2.668-19.701-1.041m-1208.5 54.5c7.174-9.507 14.532-18.885 21.365-28.631 1.364-1.945 1.539-5.527.855-7.959-2.382-8.471-9.379-12.568-19.715-12.983-7.226-.29-14.435-1.169-21.633-1.948l-34.788-3.919c-10.221-.943-15.46 7.474-10.252 17.265 2.032 3.82 4.471 7.467 6.103 11.448l17.045 42.853c3.618 9.263 7.153 12.368 14.485 11.301 5.735-.835 10.195-3.978 13.575-8.825 4.166-5.975 8.627-11.745 12.96-18.603m-18 1087c-5.244-2.362-10.685-6.032-16.174-1.558-2.915 2.376-5.231 6.003-6.705 9.531-4.21 10.08-7.538 20.531-11.811 30.581-3.675 8.642-8.514 16.789-12.203 25.426-2.936 6.873-1.513 13.414 6.659 15.358 3.941.938 8.332.545 12.444.085 9.8-1.096 19.547-2.664 29.333-3.901 8.733-1.105 17.618-1.404 26.2-3.19 9.26-1.927 17.972-11.58 10.161-22.359-6.161-8.502-12.691-16.735-19.032-25.107l-18.873-24.866m1031 225v-13.164l-.076-44.475c-.078-5.301-4.192-9.812-8.864-10.86-4.387-.985-7.949 1.244-11.104 6.628-.948 1.616-2.187 3.269-3.703 4.304-3.722 2.542-7.655 4.781-11.552 7.058l-24.14 14.074c-4.172 2.574-7.57 6.685-11.976 8.521-4.898 2.042-8.593 4.13-8.555 9.871.031 4.714 3.919 8.306 9.687 10.641 5.417 2.193 10.709 4.868 15.694 7.922 11.372 6.966 22.414 14.411 35.386 18.381 8.301 2.54 16.17-.278 17.713-6.511.914-3.693 1.021-7.586 1.491-12.39m-2-1526c-2.211-5.186-7.024-7.309-12.795-6.575-10.844 1.38-19.662 7.246-28.902 12.259l-29.411 15.799c-3.648 1.938-6.171 4.681-6.877 8.825-.692 4.062 1.509 6.957 4.48 9.077 3.665 2.615 7.645 4.793 11.519 7.109l35.192 21.087c3.375 2.096 6.875 4.686 9.024 7.911 4.078 6.121 9.177 8.022 15.145 3.943 3.701-2.53 4.69-6.662 4.615-10.973l-.998-52.519c-.105-5.149-.324-10.296-.99-15.944m-839.5 1461.5c-4.931-4.892-6.971-4.962-13.044-2.083-4.846 2.297-5.349 6.658-5.334 10.715l.878 65.543c.005.333-.031.67.005.999.515 4.71 7.541 11.025 11.916 9.67 8.513-2.636 17.05-5.562 25.018-9.5 12.063-5.961 22.05-15.661 35.419-19.524 3.647-1.054 5.945-4.624 6.744-8.924.805-4.333-1.794-6.613-4.486-8.641-3.599-2.711-7.591-4.91-11.464-7.245l-39.137-23.674c-2.465-1.543-4.033-4.519-6.514-7.334m61.5-1431.5c-1.347-2.167-2.185-5.192-4.133-6.346-7.028-4.166-14.594-7.42-21.652-11.541-11.358-6.632-22.082-14.498-35.047-17.893-8.962-2.347-18.851-.749-18.314 12.516.404 9.988-.665 20.027-.816 30.047-.168 11.152-.149 22.31.011 33.462.073 5.063 4.545 10.326 8.987 11.254 4.419.923 7.828-1.191 10.978-6.734.543-.956 1.093-2.075 1.953-2.657 4.662-3.155 9.357-6.27 14.163-9.199l22.043-13.089c5.746-3.42 11.591-6.696 17.152-10.397 2.805-1.866 5.686-4.202 4.676-9.423m-403.5 348.5c-10.751 1-21.547 1.668-32.233 3.141-5.299.73-11.104 3.167-11.67 9.139-.361 3.808 2.128 8.218 4.232 11.838 2.233 3.841 5.617 6.995 8.329 10.577 4.788 6.323 9.616 12.628 14.105 19.162 3.345 4.87 6.203 10.077 9.24 15.156 2.403 4.018 5.156 7.292 10.525 7.03 5.275-.257 8.094-3.327 9.979-7.786 1.439-3.404 2.687-6.918 4.45-10.149 9.186-16.834 21.472-32.072 26.651-50.933.867-3.159.465-7.49-1.113-10.283-1.878-3.325-6.128-4.622-10.183-3.846a699.85 699.85 0 0 0-32.311 6.955m1491.5 60.5l3.893 8.886c3.517 7.821 11.372 9.365 17.032 3.015 2.212-2.482 3.087-6.108 5.092-8.828l30.002-40.079c6.723-8.921 4.483-17.042-5.722-19.32-9.599-2.143-19.559-2.609-29.29-4.231-12.571-2.096-25.093-4.508-37.596-6.985-6.26-1.24-13.256 4.026-12.246 10.331.947 5.909 2.371 12.089 5.182 17.286 7.246 13.397 15.375 26.316 23.651 39.925m-1474 664l-4.999-10.928c-1.997-4.385-4.885-7.229-10.138-7.689-4.518-.395-8.733 3.791-10.826 7.585-2.019 3.661-3.614 7.631-6.084 10.954l-26.351 34.629c-6.138 8.508-4.289 16.473 6.267 18.793 9.449 2.077 19.226 2.612 28.795 4.208 12.733 2.123 25.42 4.538 38.097 6.98 6.586 1.269 13.132-3.491 12.036-9.984-1.068-6.328-3.007-12.786-5.959-18.461-6.301-12.111-13.504-23.752-20.838-36.086m1511 9l-13.727-20.822c-2.554-4.114-5.406-7.067-10.692-6.711-5.064.341-7.63 3.492-9.603 7.659-2.772 5.856-5.505 11.743-8.595 17.433-7.601 13.997-17.557 26.758-22.208 42.295-1.232 4.115-2.814 8.6.929 12.094 3.151 2.941 6.662 3.842 11.624 2.811 14.714-3.057 29.662-5.012 44.546-7.218 6.186-.917 12.579-.798 18.61-2.257 3.638-.88 7.328-3.338 9.984-6.069 4.014-4.128 2.241-8.089-3.065-15.382l-17.803-23.834m-1593-347l1.024-13.561c.565-5.615 1.342-11.208 1.966-16.818.573-5.155-.285-10.236-4.251-13.617-2.913-2.483-7.033-3.738-10.939-1.459-2.712 1.582-5.368 3.373-7.717 5.447l-22.149 20.083c-4.476 4.091-8.638 8.58-13.423 12.265-6.851 5.277-8.235 17.164-1.945 23.142 5.414 5.145 11.176 9.925 16.783 14.866 8.412 7.412 16.665 15.017 25.325 22.126 2.874 2.359 6.462 4.307 10.818 2.129 5.77-2.885 8.984-9.803 7.085-16.06-.678-2.233-1.411-4.54-1.517-6.84l-1.06-31.704m1697 10c0-2.829.501-5.777-.135-8.454-.697-2.935-1.776-6.323-3.849-8.293-9.085-8.635-18.517-16.912-27.974-25.145-4.825-4.2-9.814-8.249-15.007-11.979-6.387-4.586-14.259-2.127-15.801 5.551-1.178 5.867-.494 12.175-.163 18.26.348 6.397 1.748 12.759 1.815 19.145.101 9.675-.419 19.366-.952 29.034-.217 3.928-1.203 7.809-1.765 11.723-.824 5.744 1.382 10.259 5.647 14.009 3.211 2.824 6.909 1.958 9.742.34 4.516-2.58 8.597-6.011 12.583-9.409 6.444-5.494 12.781-11.127 18.942-16.936 5.788-5.458 11.289-11.219 16.917-17.846m-209.5-505.5c-3.526-.333-7.146-1.322-10.552-.827-3.895.566-8.15 1.706-11.221 3.984-2.783 2.064-3.566 6.068-1.736 9.798 2.036 4.15 3.804 8.444 6.045 12.478l25.786 46.297c2.616 5.002 6.169 7.125 11.025 7.127 4.421.003 8.128-2.666 10.226-8.474 2.297-6.359 5.009-12.583 7.827-18.735l17.585-37.682c4.754-10.437-3.117-16.871-11.761-16.749-14.085.197-28.151 1.783-43.225 2.783m-1384.5 967.5c-3.06 6.06-5.865 12.268-9.263 18.132-2.593 4.476-1.916 8.352.691 12.274 2.955 4.446 7.95 4.958 12.367 4.919 8.888-.078 17.768-1.159 26.651-1.824 1.455-.109 2.91-.252 4.367-.306l19.694-.715c3.425-.17 7.081.019 10.196-1.134 4.677-1.731 6.078-5.93 4.253-10.799-1.294-3.452-2.8-6.858-4.558-10.096l-27.792-50.951c-2.377-4.444-6.204-5.995-10.467-5.832-4.209.161-7.742 2.564-9.544 6.744l-16.595 39.589m45.5-912.5l21.999-39.789c2.326-3.982 3.145-7.413.864-11.281-1.779-3.017-9.44-5.32-12.9-4.995-6.825.64-13.713 1.162-20.553.973-12.27-.34-24.52-1.572-36.788-1.765-5.904-.093-10.605 7.634-8.233 13.142l27.17 61.631c1.745 3.89 5.2 6.357 9.577 5.977 4.262-.37 8.342-1.71 10.382-6.231 2.595-5.751 5.316-11.444 8.483-17.662m1336 895c-6.354 11.688-12.401 23.56-19.22 34.97-2.602 4.354-3.048 8.435.076 11.47 2.557 2.484 6.853 4.096 10.497 4.343 6.47.439 13.042-.876 19.55-.693 12.887.362 25.753 1.418 38.639 1.837 6.605.215 11.499-7.025 8.928-13.329-2.962-7.263-6.786-14.169-9.933-21.362l-17.118-39.862c-3.695-8.154-14.285-8.596-18.839-.831-4.369 7.451-8.08 15.289-12.58 23.456m-1468.5-613.5c-3.476-4.42-8.436-4.599-12.834-2.986-17.986 6.597-35.051 15.221-51.843 24.431-9.848 5.402-11.233 13.725-3.166 20.929 11.224 10.024 21.668 20.918 32.587 31.292 3.609 3.429 7.326 7.003 11.628 9.347 2.492 1.358 6.68 1.361 9.296.182 2.08-.938 3.28-4.467 4.24-7.078 1.069-2.907 1.625-6.049 2.056-9.137 1.43-10.261 2.438-20.587 4.122-30.804 1.295-7.851 3.21-15.613 5.153-23.338 1.058-4.207 1.588-8.14-1.239-12.838m-33.5 251.5l-25.109 25.064c-3.852 3.785-8.049 7.22-11.898 11.009-3.125 3.076-3.929 8.795-.949 11.728 3.919 3.857 8.299 7.658 13.184 10.046 14.518 7.096 29.356 13.542 44.124 20.118 4.126 1.837 8.812 2.339 12.232-.805 3.614-3.321 4.736-7.874 3.568-13.123-2.49-11.186-4.514-22.478-6.626-33.745-.817-4.359-1.292-8.782-2.041-13.155-.93-5.428-2.551-10.802-2.855-16.256-.506-9.073-6.061-12.538-13.99-7.805-3.139 1.874-5.774 4.591-9.638 6.925m1708.5-224.5c-4.316-3.167-8.282-7.048-13.015-9.366-14.361-7.036-28.903-13.744-43.653-19.914-3.184-1.332-8.238-1.112-11.187.572-4.893 2.792-5.887 7.676-4.35 13.765 2.728 10.801 4.239 21.911 6.185 32.905.691 3.901 1.13 7.846 1.75 11.76 1.062 6.707 2.358 13.382 3.203 20.115.545 4.338 3.286 7.984 7.488 7.485 3.401-.404 7.366-1.563 9.79-3.791 14.678-13.496 29.024-27.353 43.384-41.19 3.175-3.06 3.349-8.046.404-12.341m-16.5 245.5c-1.65-1.65-3.246-3.357-4.958-4.939l-24.642-22.602c-4.071-3.647-8.268-3.018-12.351.321-3.78 3.091-1.261 7.324-2.712 10.429-4.051 8.665-2.911 18.07-4.787 27.011-2.26 10.771-3.847 21.691-6.337 32.404-1.175 5.053-.517 8.873 2.975 12.682 3.533 3.852 7.598 3.483 11.564 1.837 10.238-4.251 20.425-8.656 30.429-13.424 8.228-3.922 16.296-8.23 24.191-12.788 6.428-3.711 7.178-11.439 1.89-16.618-4.813-4.714-9.833-9.216-15.262-14.311m-1345-787c-.783-.117-1.613-.106-2.343-.37l-29.913-10.92c-10.871-4.108-18.406-.594-20.793 8.364-.284 1.068-.482 2.214-.423 3.308l1.878 34.611c.188 6.725-.655 13.474-.84 20.217-.041 1.486.302 3.372 1.218 4.421 2.838 3.251 5.94 6.297 9.185 9.143.574.503 2.686.065 3.463-.634 2.019-1.817 3.468-4.292 5.552-6.007 3.152-2.594 6.822-4.559 9.969-7.157l26.332-22.099c3.341-2.668 7.603-4.148 11.247-6.478 4.702-3.007 5.996-7.816 4.846-12.854-1.113-4.872-3.625-9.115-9.13-10.576-3.125-.829-6.167-1.969-10.246-2.969m613.5-186.5c-2.198 1.531-4.731 2.747-6.528 4.656-4.442 4.718-8.668 9.654-12.763 14.681l-24.007 30.048c-3.984 5.15-.844 14.918 5.167 14.783 6.56-.148 11.504 3.017 17.15 4.786 2.533.794 5.249.985 7.859 1.558 8.852 1.943 17.778 3.628 26.51 6.016 5.635 1.541 12.586 1.051 15.586-2.566 3.842-4.63 4.089-9.692 1.086-14.925-.456-.794-.795-1.678-1.048-2.561l-13.042-45.583c-2.773-9.463-5.584-11.393-15.97-10.893m-26 1702c7.181 8.181 13.675 17.13 21.738 24.321 7.761 6.922 14.449 4.806 18.549-3.897 3.457-7.338 5.312-15.448 7.686-23.274l8.766-29.84c1.611-5.266 2.401-10.562-2.118-14.49-4.127-3.588-9.201-3.883-14.673-2.421-8.894 2.376-17.984 4.009-26.947 6.14-4.511 1.073-8.91 2.609-13.391 3.823-3.008.815-6.081 2.066-9.104 2.009-6.72-.125-12.692 7.684-8.361 14.313 5.213 7.979 11.52 15.242 17.853 23.316m-193.5-37.5c-6.086-3.946-12.899-5.141-19.985-6.168-7.989-1.157-15.938-3.15-23.626-5.639-5.84-1.89-11.108-1.377-15.526 2.2-3.85 3.116-4.253 7.87-2.375 12.6.739 1.861 1.432 3.75 1.998 5.669l14.225 47.615c1.098 3.359 4.368 6.878 7.561 8.478 4.735 2.372 9.559-.211 12.764-3.935l36.381-43.414c4.808-5.936 4.411-12.219-.767-15.459-2.604-1.63-6.397-1.359-10.652-1.948m5-1625c-10.484-12.484-20.563-25.345-31.66-37.259-4.181-4.489-12.202-5.081-16.791 1.821-1.421 2.137-2.267 4.733-3.014 7.228l-15.153 50.717c-1.543 4.89-.672 9.05 2.528 12.118 3.333 3.196 7.85 4.028 12.766 2.8 9.552-2.386 19.224-4.292 28.838-6.432 4.568-1.017 9.692-1.174 13.489-3.486 2.912-1.773 5.376-2.734 8.516-2.49 4.21.327 7.095-1.598 8.964-5.177s1.556-7.05-.919-10.269l-7.564-9.571m563 1498c1.72.667 3.408 1.437 5.166 1.979 4.136 1.275 8.363 2.277 12.452 3.681 11.353 3.899 22.56 8.253 34.007 11.844 10.056 3.155 17.182-4.925 16.889-12.776l-.987-31.524c-.145-6.541-.535-13.139.127-19.615.57-5.58-1.677-10.755-6.94-12.592-6.331-2.209-11.959.835-16.383 4.062-8.617 6.286-16.07 14.142-24.404 20.853-5.594 4.504-10.516 9.915-17.859 12.258-5.703 1.819-8.161 7.905-6.374 13.432.891 2.755 2.514 5.273 4.306 8.399m52-1364l-4.765 1.758-41.106 14.098c-7.534 2.561-10.635 6.732-10.646 14.326-.009 5.437 3.042 7.942 7.723 10.232 12.215 5.975 21.908 15.5 31.686 24.679 5.922 5.558 11.862 10.122 20.025 12.181 4.3 1.085 7.616-.074 9.714-2.362 1.999-2.179 2.681-6.154 2.769-9.372.16-5.835-.987-11.708-.806-17.54.339-10.888 1.499-21.751 1.833-32.638.333-10.853-4.467-15.361-16.427-15.361m-1013 1335c-7.002-6.002-14.4-11.609-20.888-18.122-5.904-5.926-12.252-10.342-20.449-12.315-5.308-1.278-12.118 3.294-12.151 8.812l-.042 23.14c-.212 10.517-1.022 21.036-.867 31.544.175 11.823 8.265 16.195 17.639 13.461 15.817-4.613 31.327-10.298 46.898-15.727 5.388-1.878 7.946-6.349 8.297-11.805.459-7.141-1.087-9.018-7.554-12.196-3.617-1.778-6.931-4.174-10.882-6.791m-327.5-873.5c5.988 6.06 9.308 13.61 11.998 21.509 1.512 4.44 6.021 7.929 10.306 7.997 5.172.082 8.6-2.453 10.289-7.184.629-1.76.21-3.892.824-5.661 2.572-7.419 5.161-14.843 8.109-22.117 3.872-9.553 4.637-20.363 11.566-28.696.551-.663.827-1.716.877-2.608.523-9.258-6.153-11.993-15.423-10.687l-45.561 6.99c-4.381.705-8.747 1.429-11.521 5.866-2.625 4.198-1.764 8.222.654 11.486 5.636 7.61 11.884 14.766 17.884 23.106m1649 492c2.685-3.745.675-7.357-1.302-10.079-5.27-7.258-11.366-13.911-16.761-21.085-4.951-6.582-9.974-13.105-12.088-21.467-1.218-4.817-4.535-8.711-9.899-9.844-4.405-.93-7.806 1.258-9.938 4.673-1.498 2.401-1.655 5.605-2.619 8.378l-10.957 30.921c-2.419 6.484-3.415 13.369-8.229 19.151-4.307 5.174.767 13.863 7.549 13.742 4.063-.073 8.091-1.346 12.161-1.869l40.371-5.064c4.65-.618 9.249-1.698 11.71-7.458m-14-498c3.644-4.978 6.844-10.373 11.038-14.834 6.177-6.572 5.197-16.746-4.96-18.646-4.193-.785-8.424-1.368-12.642-2.016l-18.784-2.833c-8.039-1.116-16.067-2.502-24.148-3.054-6.966-.475-11.128 5.618-8.58 12.175 1.164 2.996 3.763 5.428 4.975 8.415 1.62 3.99 2.364 8.325 3.766 12.416l10.858 30.929c.962 2.771 1.136 5.952 2.605 8.38 2.25 3.721 6.526 6.217 10.352 4.292 3.762-1.893 8.005-5.538 9.195-9.31 3.156-9.999 8.846-18.008 16.325-25.913m-1587.5 512.5c6.699-3.657 9.617-9.891 2.849-17.196-.945-1.02-1.866-2.234-2.301-3.526l-7.603-23.324c-2.451-7.472-5.324-14.83-7.302-22.423-1.112-4.269-4.217-9.572-7.865-10.531-3.943-1.037-10.066 1.74-12.212 5.96-1.385 2.723-1.596 6.141-3.281 8.598-8.028 11.714-16.147 23.382-24.702 34.713-5.547 7.347-7.238 10.387-2.847 15.366 2.525 2.862 7.257 4.431 11.261 5.199 8.286 1.589 16.756 2.204 25.137 3.313l28.867 3.852m802.5-1098.5l-23.029-29.434c-2.962-3.725-5.557-7.792-11.307-8.179-6.39-.431-9.43 3.957-12.591 7.902-7.466 9.315-14.631 18.875-21.749 28.462-2.505 3.373-4.975 6.913-6.634 10.735-1.842 4.245-.788 8.389 2.605 11.855 3.166 3.234 6.664 3.401 10.809 2.242 3.78-1.057 7.741-1.879 11.646-1.991 9.655-.279 19.329-.306 28.983-.002a70.93 70.93 0 0 1 14.642 2.014c5.816 1.434 11.976-2.52 12.691-8.381.733-6.009-2.836-10.152-6.065-15.223m-36.5 1622.5c-2.028-.333-4.045-.765-6.086-.982l-20.164-2.017c-1.446-.143-3.026-.722-4.319-.339-9.397 2.78-12.138 10.309-6.299 18.365 8.957 12.358 18.144 24.559 27.559 36.572 8.284 10.57 16.066 7.706 22.81-1.487l4.52-6.124 22.239-29.288c3.034-4.051 3.282-8.781 1.115-13.083-1.902-3.774-6.514-6.912-9.902-5.323-9.95 4.666-20.538 1.026-31.472 3.707z"/>
    <path d="M1618.14 562.651l19.721 37.185c18.661 36.645 33.394 74.909 45.411 114.162 6.095 19.909 10.767 40.276 15.519 60.568 3.506 14.971 6.389 30.106 9.001 45.263 1.843 10.693 3.107 21.515 4.023 32.331l3.966 56.838c.832 18.839 1.077 37.718.996 56.577-.048 11.226-.903 22.477-1.967 33.662-1.333 14.007-3.096 27.98-4.965 41.928-1.791 13.366-3.443 26.783-6.082 39.993-3.485 17.445-7.241 34.886-12.029 52.008a1278.04 1278.04 0 0 1-21.006 67.786c-5.154 15.135-11.68 29.816-17.891 44.574-4.6 10.929-9.164 21.926-14.661 32.413-9.851 18.796-20.14 37.375-30.731 55.765-7.086 12.305-14.608 24.405-22.658 36.099-10.06 14.614-20.481 29.017-31.453 42.956-10.696 13.588-21.942 26.784-33.566 39.59-13.645 15.033-27.525 29.909-42.111 44.018-13.197 12.766-27.097 24.882-41.368 36.445-27.018 21.891-54.831 42.744-85.017 60.203-14.252 8.243-28.29 16.888-42.805 24.637-14.828 7.916-29.917 15.419-45.269 22.255-16.589 7.387-33.475 14.164-50.49 20.515-14.31 5.341-28.851 10.178-43.541 14.351-18.252 5.185-36.708 9.693-55.18 14.048-14.334 3.38-28.766 6.432-43.272 8.96-11.012 1.919-22.187 2.994-33.326 4.066l-47.836 4.042-14.085.985c-9.858.411-19.722.969-29.583.951-11.529-.022-23.07-.345-34.58-.995-12.435-.702-24.886-1.554-37.248-3.026-16.411-1.954-32.82-4.138-49.09-7.013-22.112-3.907-44.21-8.05-66.09-13.069-15.065-3.456-29.979-7.921-44.552-13.089-23.367-8.286-46.669-16.881-69.483-26.562-19.71-8.364-39.041-17.79-57.919-27.905-19.989-10.71-39.68-22.12-58.698-34.461-18.16-11.785-35.696-24.639-52.751-37.989-16.428-12.859-32.209-26.6-47.678-40.612-13.753-12.458-27.369-25.203-39.817-38.935-16.473-18.173-32.176-37.093-47.404-56.33-11.766-14.865-22.739-30.415-33.24-46.209-9.912-14.909-19.183-30.29-27.938-45.909-9.138-16.302-17.911-32.865-25.771-49.812-8.87-19.125-17.017-38.622-24.59-58.299-6.093-15.83-11.347-32.029-16.089-48.321-5.214-17.91-9.701-36.046-13.97-54.21-3.443-14.652-6.398-29.438-8.986-44.266-1.865-10.688-2.937-21.526-4.058-32.328l-3.09-34.746c-3.217-29.176-1.711-58.444-1.84-87.672-.047-10.553.838-21.154 1.976-31.66 1.647-15.209 3.793-30.368 5.945-45.517 1.827-12.862 3.543-25.764 6.074-38.496 2.951-14.842 6.188-29.672 10.288-44.23 6.078-21.581 12.538-43.084 19.759-64.306 5.599-16.455 12.134-32.639 19.126-48.56 7.684-17.497 15.742-34.891 24.787-51.712 9.862-18.339 20.523-36.303 31.787-53.819 12.595-19.586 25.957-38.703 39.578-57.597 7.332-10.171 15.62-19.702 23.986-29.068 12.469-13.958 25.14-27.755 38.187-41.171 11.992-12.332 24.083-24.658 37.054-35.924 16.836-14.623 34.092-28.869 52.079-42.031 18.854-13.796 38.423-26.712 58.353-38.912 19.554-11.969 39.575-23.316 60.083-33.549 24.245-12.098 49.281-22.504 74.811-31.812 26.066-9.504 52.562-17.426 79.332-24.467 13.174-3.465 26.675-5.716 40.068-8.308 12.837-2.484 25.679-5.018 38.607-6.931 10.177-1.506 20.479-2.212 30.743-3.074 13.242-1.113 26.486-2.4 39.757-2.936 17.513-.707 35.051-.94 52.58-1.023 10.193-.048 20.413.271 30.578 1.01 13.97 1.016 27.93 2.332 41.838 3.992 14.043 1.676 28.111 3.432 41.996 6.058 16.422 3.106 32.611 7.427 48.991 10.78 25.748 5.27 50.657 13.35 75.327 22.176 15.509 5.548 30.95 11.404 46.016 18.042 20.025 8.822 39.973 17.931 59.358 28.058 16.931 8.845 33.417 18.687 49.411 29.142 21.094 13.79 41.682 28.376 62.146 43.095 8.757 6.299 16.81 13.617 24.899 20.792l34.447 31.479c11.774 11.272 23.888 22.334 34.472 34.673 19.561 22.802 38.951 45.848 56.82 69.972 14.113 19.053 25.872 39.854 38.601 59.926 2.517 3.969 4.693 8.153 7.276 12.488m-463.25 534.75l1.95-37.148c.23-5.62 1.31-10.756 3.904-15.911 4.714-9.368 5.167-19.544 2.403-29.557-2.5-9.053-6.166-17.763-6.297-27.389l-.926-37.581c-.164-11.22.283-22.455-.142-33.661-.304-8.017 1.357-15.435 4.05-22.864 3.413-9.417 5.514-19.204-.053-28.422-4.753-7.871-5.5-16.423-5.803-25.08-.366-10.485-.139-20.994-.042-31.491.019-2.031.894-4.055.905-6.085.035-6.596 2.4-13.101-.745-19.849-1.8-3.862-2.191-8.7-2.081-13.07.309-12.231 1.579-24.441 1.767-36.67.174-11.352-.283-22.737-1.069-34.066-.22-3.175-2.104-6.56-4.083-9.206-2.552-3.411-6.247-5.947-8.959-9.262-8.951-10.942-21.876-15.151-34.219-20.052-12.459-4.948-25.355-8.792-38.047-13.158-.865-.297-1.618-.917-2.424-1.386.886-.53 1.719-1.194 2.667-1.566 2.724-1.071 5.787-1.584 8.158-3.158 2.086-1.384 4.356-3.71 4.821-5.975.47-2.291-.732-5.27-2-7.491-1.876-3.286-4.778-5.983-6.677-9.258-5.718-9.86-13.798-17.275-23.492-22.924-3.184-1.855-6.766-2.452-10.193.766-4.205 3.949-9.026 7.234-13.372 11.044-8.224 7.211-16.874 14.069-24.193 22.122-3.678 4.046-7.282 5.851-12.139 5.787-7.697-.101-15.386-.775-23.083-.897l-31.494-.041c-7.723 0-15.49-.532-23.158.112-15.339 1.288-30.684 2.805-45.91 5.026-11.135 1.625-22.222 4.02-33.078 6.995-12.498 3.425-25.295 6.657-36.903 12.193-12.599 6.008-24.092 14.4-35.858 22.072-10.424 6.796-15.069 17.072-16.181 29.166-.4 4.344-.865 8.687-1.083 13.041-.394 7.87-1.453 15.827-.716 23.604.957 10.091 1.311 19.964-.764 29.939-.964 4.634-1.779 9.479-1.489 14.156.596 9.587 2.118 19.113 2.999 28.688.583 6.338.904 12.714 1.002 19.079.146 9.435.518 18.617-5.44 27.282-5.876 8.546-5.341 19.146-1.897 28.321 3.316 8.834 4.594 17.444 4.45 26.669l-.112 47.662c-.098 9.696-.394 19.404-1.071 29.073-.267 3.816-1.369 7.73-2.867 11.27-3.23 7.634-4.385 15.363-1.955 23.312 1.663 5.44 4.772 10.545 5.758 16.063 1.937 10.838 3.78 21.842 3.994 32.809.549 28.042.107 56.102.229 84.154.037 8.528.759 17.052.908 25.583.108 6.217 2.138 11.477 6.603 15.778 12.083 11.638 26.663 19.278 42.21 24.795 14.276 5.066 29.242 8.196 43.491 13.324 15.559 5.6 31.656 7.296 47.832 8.746 15.548 1.394 31.155 2.155 46.743 3.064 13.216.771 26.451 2.021 39.661 1.84 14.094-.193 28.174-1.752 42.25-2.849 6.237-.486 12.709-.407 18.625-2.128 22.71-6.608 45.36-13.478 67.797-20.955 18.152-6.049 33.796-16.121 45.95-31.37 8.938-11.214 10.868-23.499 7.938-37.11-1.001-4.651-1.724-9.421-1.917-14.163-.103-2.525 1.691-5.09 1.782-7.667l1.082-44.076m-765 124c-.667 6.887-.893 13.854-2.111 20.642-1.54 8.583-3.863 17.027-5.93 25.511-.205.844-.978 1.549-1.488 2.318-.49-.63-1.072-1.209-1.456-1.898-2.033-3.651-4.32-7.2-5.959-11.024l-15.067-36.238c-1.319-3.17-3.36-6.164-7.168-4.661-3.098 1.222-3.863 4.113-2.901 7.741 5.131 19.337 13.506 37.192 24.458 53.827 2.695 4.093 6.586 7.499 12.316 6.259 4.61-.997 5.58-4.902 6.533-8.712 2.605-10.418 5.59-20.763 7.654-31.288 1.895-9.666 2.887-19.517 4.073-29.311.526-4.341-1.867-7.46-5.327-7.667-4.284-.256-6.464 2.281-6.669 7.415-.081 2.038-.625 4.057-.959 7.084m578-939l12.017-36.523 6.66-19.234c.853-2.673 1.167-5.931-1.944-7.335-2.522-1.138-5.737-1.218-7.363 1.809-2.33 4.34-4.787 8.726-6.272 13.385-4.279 13.42-8.061 26.999-12.155 40.48-.429 1.412-1.641 2.587-2.489 3.872-.818-1.161-1.89-2.219-2.413-3.5-3.085-7.556-6.239-15.093-8.985-22.775-2.599-7.272-4.865-14.673-6.992-22.098-.93-3.245-4.155-5.281-7.237-3.91-4.178 1.858-5.076 4.778-3.112 10.532 2.391 7.006 4.39 14.194 7.388 20.935a507.33 507.33 0 0 0 16.056 32.833c1.566 2.932 4.751 4.949 9.076 3.131 4.932-2.073 5.485-6.862 7.764-11.603m-601 381l-11.978-25.512c-1.243-2.69-3.442-3.743-5.933-2.85-1.608.576-3.928 2.534-3.867 3.77.184 3.695.735 7.648 2.309 10.944 4.722 9.888 9.776 19.637 15.151 29.186 2.772 4.924 6.161 9.61 9.901 13.847 3.124 3.54 9.059 2.858 11.799-.831 2.046-2.755 4.055-5.612 5.563-8.678 4.802-9.761 5.328-20.546 7.07-31.04l5.479-31.217c.692-3.476.742-6.217-2.605-8.112-3.892-2.203-7.669-.411-8.769 5.333-2.702 14.116-4.603 28.384-7.204 42.521-1.176 6.394-3.216 12.632-4.96 18.913-.219.788-1.033 1.412-1.571 2.112-.462-.641-1.002-1.241-1.373-1.931l-9.012-16.455m-99 292l-3.991 9.344c-.432 1.03-.763 2.103-1.14 3.156-.956-1.003-2.204-1.853-2.823-3.033l-18.889-36.143c-1.737-3.179-4.395-6.223-7.365-8.258-3.07-2.104-6.971-.649-8.152 2.659-.747 2.094.323 6.528 1.969 7.462 4.644 2.636 6.178 7.068 8.354 11.159 6.894 12.961 13.16 26.283 20.626 38.899 3.22 5.442 10.839 6.326 14.188-1.136 3.085-6.874 5.995-13.902 8.099-21.12 2.53-8.681 4.149-17.629 6.116-26.471l2.982-14.256c.506-2.678-.321-5.589-3.161-5.528-2.33.05-5.555 1.599-6.714 3.501-2.038 3.343-3.104 7.391-4.036 11.273-2.19 9.123-4.061 18.322-6.061 28.491m1365.5 1.5l-13.703-28.786c-.959-2.075-2.266-4.9-1.576-6.657 2.086-5.306.056-8.553-4.224-10.938-1.653-.921-4.494-1.933-5.559-1.173-1.691 1.206-3.369 3.941-3.225 5.894.304 4.132 1.738 8.19 2.797 12.255 4.012 15.399 10.418 29.758 21.029 41.657 5.776 6.477 11.924 6.615 17.288-.235 1.447-1.848 2.099-4.48 2.624-6.861l6.077-28.961c1.53-6.997 3.325-13.936 4.967-20.909 1.074-4.562-1.022-9.573-4.243-10.285-3.673-.812-6.797 2.661-7.807 7.859-1.638 8.431-3.689 16.782-5.47 25.186l-4.493 22.118c-.249 1.199-.764 2.343-1.156 3.512l-3.324-3.676m-658.5 660.5c.227-2.716.255-5.774-2.976-6.368s-6.8-.529-8.334 3.64c-.742 2.015-2 3.849-2.655 5.884l-15.071 47.178c-.26.809-1.052 1.448-1.596 2.166-.456-.64-1.015-1.231-1.35-1.929-2.597-5.412-5.357-10.758-7.667-16.292-3.265-7.819-8.593-14.882-8.486-23.999.026-2.25-1.064-5.29-2.719-6.533-1.286-.966-5.154-.496-6.251.757-1.66 1.895-2.97 5.22-2.537 7.593.931 5.107 2.712 10.148 4.786 14.938 4.338 10.022 9.284 19.781 13.591 29.816 2.102 4.896 4.601 9.24 10.294 9.531 6.132.314 8.953-4.658 10.858-9.318 4.365-10.674 8.196-21.57 12.088-32.432 2.806-7.831 5.36-15.752 8.027-24.633m-384-1270c-3.507 3.008-2.316 6.322-.441 9.506 1.667 2.832 3.733 5.429 5.421 8.25l19.321 32.425c3.937 6.288 13.964 7.343 17.313 2.075 1.877-2.953 3.26-6.317 4.334-9.667l15.657-50.423c.618-2.11-.754-6.763-1.941-7.036-2.537-.584-5.777.495-8.287 1.766-1.284.65-1.823 3.121-2.341 4.875l-7.035 24.554-7.029 24.556c-.174.6-.831 1.571-1.137 1.526-.875-.131-2.04-.469-2.463-1.128-3.278-5.11-6.538-10.242-9.554-15.509l-12.84-23.136c-1.885-3.346-4.239-5.923-8.979-2.634m40 1165c0 1.498.212 3.032-.033 4.489l-6.989 40.549c-.321 1.827-.937 3.602-1.417 5.401-1.51-1.136-3.08-2.204-4.5-3.443-.54-.471-.641-1.41-1.103-2.013-7.362-9.595-12.462-20.29-16.071-31.813-.847-2.705-2.894-5.754-6.64-4.301-3.381 1.31-5.009 3.962-3.594 7.801 1.172 3.18 2.13 6.44 3.365 9.594 4.974 12.702 11.236 24.667 21.391 34.059 6.854 6.339 12.853 6.345 16.513-3.203 2.097-5.47 3.768-11.165 4.991-16.895 1.68-7.864 2.893-15.836 4.042-23.8.892-6.183 1.32-12.432 2.066-18.639.486-4.045-2.118-4.983-5.194-5.252-5.024-.439-4.987 3.937-6.827 7.466m165-135l.029-42.462c.01-2.443-.383-4.705-3.325-3.895-1.769.487-4.218 2.191-4.491 3.689-.658 3.6-.342 7.408-.179 11.121.185 4.198.66 8.382.941 12.577.052.769-.223 1.561-.347 2.342-.804-.386-1.885-.559-2.368-1.191-3.634-4.751-8.812-7.088-14.344-7.557-18.204-1.542-29.795 10.39-29.687 27.484.066 10.357 5.177 18.978 15.301 23.3 3.673 1.568 7.897 3.206 11.684 2.847 6.771-.641 13.804-1.957 17.65-8.998.307-.562 1.723-.519 2.623-.757-.13.801-.299 1.598-.379 2.404-.081.814-.203 1.657-.082 2.453.265 1.734-1.36 4.451 2.627 4.237 2.958-.159 4.529-.617 4.419-4.116-.235-7.486-.072-14.984-.072-23.478m506 136l6.002 7.509c4.943 6.119 9.717 12.388 14.927 18.272 2.497 2.82 6.26 5.256 9.863 2.548 2.678-2.012 5.07-5.313 6.062-8.513 5.956-19.207 7.109-39.083 6.937-59.03-.015-1.775-2.737-4.668-4.603-5.043-3.614-.725-5.858 1.956-6.149 5.568-.783 9.711-1.076 19.47-2.138 29.146-.789 7.185-2.468 14.274-3.775 21.401-.164.894-.478 1.761-.723 2.641-.913-.612-2.053-1.043-2.704-1.862l-21.952-27.877c-2.224-2.822-7.469-3.61-9.939-1.568-2.724 2.252-2.523 5.877.637 9.227 2.286 2.422 4.698 4.725 7.555 7.581m266.5-292.5c-.471-1.137-1.015-2.25-1.4-3.416-3.05-9.228-5.877-18.538-9.235-27.652-.845-2.294-3.071-4.516-5.246-5.679-.945-.506-4.118 1.343-4.924 2.848-.979 1.827-1.253 4.669-.576 6.642 4.095 11.941 8.057 23.971 13.058 35.541 3.218 7.445 8.911 10.015 16.042 7.435 3.958-1.432 8.013-5.109 10.024-8.849 3.391-6.307 5.785-13.323 7.522-20.308 2.572-10.347 4.314-20.908 6.174-31.419.609-3.444-1.553-5.566-4.834-6.093-3.997-.642-5.332 2.342-6.048 5.393-.898 3.832-1.072 7.848-2.115 11.63-3.169 11.486-6.505 22.93-10.048 34.305-.551 1.769-2.53 3.092-3.849 4.622l-4.544-5m-16-551c-1.298-3.321-4.193-5.239-7.013-3.565-1.874 1.112-3.653 5.178-3.044 7.184 2.316 7.623 5.257 15.118 8.657 22.334 3.551 7.538 7.839 14.735 11.929 22.012 1.723 3.067 4.394 5.906 8.004 4.818 2.636-.795 6.012-3.185 6.736-5.569 3.203-10.545 5.891-21.277 8.121-32.075 1.573-7.619 2.054-15.461 3.136-23.187.499-3.56-1.787-8.636-4.614-8.871-3.908-.325-6.312 2.399-7.279 5.657-.943 3.175-.728 6.681-1.15 10.025-.576 4.566-1.258 9.119-1.923 13.673l-3.1 20.686c-.215 1.336-.959 2.587-1.459 3.877-.833-.956-1.98-1.78-2.452-2.89l-14.548-34.109m-563.5-163.5c-4.931-9.562-24.352-10.263-30.684-1.365-.485.681-1.384 1.067-2.091 1.59-.408-.83-1.382-1.947-1.131-2.444 1.472-2.916.274-4.954-2.417-5.122-2.979-.186-3.724 2.332-3.709 5.117l.175 39.478c.035 1.769 1.97 4.926 3.081 4.951 2.341.053 3.995-1.712 3.871-4.885-.294-7.485-.224-14.992-.064-22.485.245-11.516 10.285-18.241 20.265-15.308 6.194 1.82 9.606 6.875 9.687 14.161l-.003 22.489c-.025 2.898-.058 6.304 3.63 5.991 1.299-.11 3.095-4.012 3.238-6.273.428-6.803.334-13.656.101-20.479-.206-6.037 2.161-10.888 6.891-14.094 7.635-5.175 18.845-3.316 21.724 6.372 1.078 3.626 1.252 7.588 1.381 11.412.214 6.323-.101 12.666.175 18.984.066 1.503 1.588 2.942 2.44 4.411 1.148-1.006 3.034-1.848 3.302-3.05.742-3.326 1.128-6.808 1.074-10.219-.11-6.976-.279-13.983-1.079-20.902-.358-3.092-1.716-6.452-3.622-8.914-7.425-9.593-23.124-8.904-31.65-1.075-1.097 1.007-2.709 1.454-4.582 1.661m365.5-85.5c1.766-2.433 4.028-4.646 5.217-7.334 7.13-16.12 10.808-32.984 10.321-50.693-.089-3.237-.258-5.819-4.517-6.041-4.542-.237-6.11 2.534-6.457 6.098-1.343 13.826-2.244 27.712-8.045 40.652-.468 1.043-.662 2.209-.983 3.317-.994-.816-2.335-1.434-2.927-2.478l-12.104-21.956c-2.367-4.345-4.42-8.889-7.115-13.016-1.651-2.528-4.411-4.833-7.735-3.057-3.253 1.738-4.091 4.628-2.046 8.155l23.938 41.529c3.13 5.326 6.882 6.648 12.453 4.823m-251.5 116.5c3.824-6.667 4.26-14.203 2.589-21.098-2.667-11.003-10.225-15.677-20.205-17.238-7.101-1.11-14.055.494-19.279 6.251-.668.736-1.187 1.607-1.775 2.416-.444-1.148-1.57-2.615-1.209-3.386 1.35-2.886.421-4.988-2.291-5.291-3.03-.339-3.872 2.104-3.863 4.952l.161 57.915c.018 1.669 1.978 4.767 2.824 4.696 2.162-.183 4.346-1.26 4.148-4.654-.358-6.137-.128-12.31-.07-18.467.008-.867.431-1.731.662-2.596.667.398 1.479.664 1.98 1.214 8.863 9.723 28.859 7.519 36.327-4.714m-21.5 861.5c-10.449-3.923-12.5-6.869-12.5-17.952 0-7.825-.241-15.661.113-23.47.153-3.365-1.438-5.287-4.003-5.382-2.628-.098-4.318 1.745-4.207 5.146.289 8.814-.105 17.651.169 26.466.178 5.721 1.734 11.208 5.808 15.538 7.269 7.726 23.998 9.561 32.784-.432.724-.823 2.037-1.128 3.077-1.674.056 1.117.143 2.233.16 3.351.019 1.254-.453 3.355.038 3.602 1.329.669 3.256 1.071 4.55.565.857-.335 1.437-2.412 1.449-3.716l.063-34.463-.002-8.99c-.004-1.381.502-3.453-.178-3.981-1.005-.779-3.153-1.029-4.275-.453-1.179.606-2.393 2.429-2.433 3.756-.23 7.485-.111 14.981-.111 22.473.001 12.509-8.077 19.934-20.5 19.615m-226.5-8.5c-.333-4.027-.867-8.05-.956-12.083-.157-7.161-.282-14.339.06-21.487.162-3.401-2.052-4.716-4.138-4.703-2.107.013-4.189 1.435-4.07 4.774.311 8.652-.194 17.338.209 25.983.27 5.781 1.487 11.437 5.494 16.199 6.341 7.535 25.895 9.597 32.873-.072.678-.939 2.032-1.389 3.072-2.067l.207 3.706c.08 1.256-.277 3.174.368 3.616 1.051.719 3.015 1 4.118.472.936-.448 1.677-2.296 1.688-3.532l.073-39.486c0-1.333-.505-2.976.089-3.944 2.3-3.745-1.542-5.422-2.935-5.583-2.561-.295-4.25 1.601-4.26 4.978-.029 9.36-.108 18.763-1.039 28.062-.732 7.311-4.904 11.621-13.797 13.501-6.261 1.323-12.818-.671-17.059-8.335m-124-871c0 1.665-.083 3.334.014 4.993.517 8.899 4.156 15.957 12.091 20.518 5.778 3.321 11.899 3.705 18.42 3.106 5.439-.5 9.583-2.985 13.237-6.576.501-.493.114-2.917-.598-3.437-2.852-2.082-5.077.379-7.365 1.628-7.872 4.295-19.707 3.326-25.095-4.665-1.417-2.102-1.83-4.88-2.704-7.348 2.051-.573 4.093-1.605 6.153-1.64l29.959-.188c1.311-.026 3.768-1.649 3.706-2.36-.604-6.973-2.272-13.931-7.664-18.668-7.177-6.304-16.081-7.853-24.882-4.397-8.09 3.176-13.026 9.819-15.272 19.035m189.5-10.5c-7.173-11.047-21.531-12.243-30.26-7.624-12.268 6.492-17.812 24.337-8.031 37.768 7.42 10.189 28.882 11.977 37.261 3.774.998-.977 1.235-2.73 1.824-4.123-1.78-.265-3.595-.871-5.328-.689-1.444.152-2.766 1.286-4.184 1.885-10.932 4.619-19.212 1.865-24.867-5.752-1.291-1.739-1.804-4.462-1.623-6.645.056-.679 3.572-1.494 5.514-1.523l30.482-.017c3.685.057 4.29-1.893 3.542-4.656-1.087-4.017-2.536-7.937-4.331-12.398m39.5 894.5c1.922.411 3.875 1.175 5.747 1.012.537-.047 1.181-2.765 1.198-4.265l-.034-28.485c-.067-2.746-1.064-5.506-1.87-8.19-3.752-12.504-26.419-15.552-35.2-5.978-.907.989-2.282 1.549-3.44 2.307-.134-1.111-.454-2.237-.366-3.329.236-2.917-1.299-4.214-3.797-3.429-1.32.415-3.082 2.298-3.1 3.541l-.176 44.479c-.014 2.626.636 3.911 3.578 3.912 3.016 0 3.528-1.436 3.496-3.992l-.026-23.49c.04-7.463 5.085-15.837 10.966-17.546 11.628-3.379 23.167.18 23.037 16.463l-.012 26.989m175-896c6.593-4.778 13.492-2.397 20.07-.33 2.978.936 5.35 1.155 6.41-1.548.337-.86-2.426-3.872-4.243-4.475-6.885-2.286-13.943-3.107-21.213-1.213-5.656 1.473-10.985 6.782-10.951 12.406.039 6.493 1.98 10.266 9.588 12.584 4.625 1.409 9.609 1.68 14.178 3.216 3.005 1.01 7.179 1.628 7.152 6.375-.023 4.123-2.578 7.047-6.149 7.295-6.495.452-13.248 1.188-19.29-2.693-2.138-1.373-4.647-1.947-6.115 1.002s.849 3.832 2.948 4.904c8.903 4.548 18.1 4.781 27.373 1.635 5.042-1.711 8.256-7.036 8.243-12.436-.014-5.444-2.205-8.768-8.231-10.832-4.551-1.559-9.346-2.514-14.102-3.339-7.429-1.288-10.225-6.53-5.667-12.552m-88.5 845.5c-3.693-.333-7.5-.238-11.03-1.182-1.753-.468-4.106-2.729-4.278-4.377-.747-7.171 5.589-12.134 12.483-10.261.894.243 1.904.959 2.63.73 1.323-.419 3.256-1.198 3.483-2.168.245-1.044-.92-3.273-1.919-3.596-3.262-1.056-6.926-2.534-10.08-1.945-8.958 1.671-14.382 6.777-13.745 17.01.221 3.546-.769 4.998-4.629 5.009-1.475.004-3.843 2.265-4.225 3.873-.768 3.236 2.123 3.125 4.226 2.863 3.894-.485 4.702 1.318 4.651 4.842l-.063 35.978c.002 2.573-.733 5.412 3.646 5.307 4.036-.097 3.34-2.718 3.343-5.102l-.022-35.978c-.022-3.516 1.458-5.138 4.989-5.018 2.662.091 5.366.294 7.985-.054 3.074-.409 5.506-1.676 2.555-5.928m79.5 2.5c-.414 3.5 1.854 3.797 4.363 3.471 3.786-.492 4.809 1.142 4.709 4.762-.229 8.313.093 16.641-.126 24.955-.168 6.367 1.191 12.144 7.085 15.186 5.823 3.006 11.928 2.28 17.872-.795 3.381-1.75 2.072-3.241.104-4.402-1.226-.724-3.238-.912-4.611-.464-9.781 3.192-12.817-3.209-13.259-9.68-.565-8.281-.115-16.63-.148-24.949-.013-3.337 1.683-4.677 4.879-4.599 2.827.069 5.721.367 8.458-.134 1.371-.251 2.459-2.057 3.674-3.16-.875-.94-1.606-2.433-2.656-2.708-2.451-.64-5.141-1.252-7.578-.872-5.663.882-7.837-.957-6.792-6.397.197-1.025.418-2.836.001-3.049-1.625-.826-3.539-1.588-5.27-1.448-.671.054-1.604 2.566-1.616 3.966-.035 3.948.547 7.911-5.652 6.954-1-.154-2.283 1.528-3.436 3.361m-453-820c0 3.165-.244 6.359.132 9.479.133 1.101 1.77 2.877 2.741 2.891l39.476.055c.888-.007 2.297-.93 2.508-1.692.227-.823-.399-2.329-1.14-2.864-1.072-.774-2.576-1.297-3.904-1.312-9.16-.108-18.325.032-27.483-.149-1.456-.029-4.083-1.178-4.146-1.97-.636-8-1.138-16.035-1.112-24.058.032-10.024.677-20.046.79-30.071.01-.925-1.816-2.537-2.944-2.689-3.905-.527-4.98 1.831-4.958 5.405l.04 46.975m164-27l.025 25.444c.219 13.685 12.115 17.202 21.944 12.933 1.38-.599 2.038-2.86 3.03-4.351-1.698-.31-3.548-1.218-5.068-.831-7.632 1.946-12.721-1.05-12.889-8.216-.186-7.978-.279-15.977.157-23.936.087-1.586 2.512-3.851 4.271-4.35 2.616-.743 5.613-.033 8.42-.273 1.077-.092 2.075-1.098 3.109-1.687-.712-1.077-1.235-2.841-2.173-3.101-2.584-.714-5.378-1.245-8.023-1.031-4.434.357-6.607-.83-5.848-5.667.379-2.417.152-4.501-3.379-4.518-3.397-.017-3.795 1.751-3.581 4.372.275 3.372.287 6.195-4.652 5.936-1.375-.072-2.892 2.564-4.344 3.958 1.516.606 3.069 1.134 4.537 1.841 1.531.737 2.979 1.645 4.463 3.478m265 835c-3.161-2.828-6.12-5.941-9.557-8.38-2.192-1.556-5.079-2.921-7.678-2.963-6.878-.112-9.195 7.046-14.284 9.978-.677.39-.783 1.772-1.153 2.694 1.033.057 2.178.429 3.077.108 2.022-.722 4.182-1.46 5.826-2.77 6.733-5.365 6.662-5.436 13.537.082.978.785 2.039 1.957 3.119 2.023 2.356.144 4.683 3.558 7.113-.771m-285-9c-.08.92-.57 2.105-.175 2.717 2.743 4.237 2.459 8.499.584 12.908-.3.705-.506 1.589-.362 2.313.3 1.504.863 2.955 1.318 4.427 1.212-1.04 3.024-1.85 3.528-3.162 1.93-5.022 3.889-10.121 4.894-15.371.424-2.213-.809-5.959-2.53-7.049-2.017-1.279-5.505-.778-7.257 3.217z"/>
    <path d="M1101.89 985.901c-1.178 6.012-1.937 11.657-3.644 17-2.009 6.29-5.079 12.235-7.244 18.483-1.93 5.572-1.677 11.227.865 16.725 3.406 7.365 1.054 13.72-5.044 18.92-6.824 5.819-15.048 7.906-22.988 11.034-2.053.809-4.635 3.597-4.664 5.51-.055 3.686 3.526 3.544 6.348 3.292 1.546-.138 3.074-.579 4.586-.974 11.427-2.985 23.136-5.2 34.195-9.206 11.941-4.325 24.328-8.711 33.354-18.265 6.863-7.263 11.059-16.192 12.286-26.366.665-5.519-.42-10.582-1.863-15.899-1.812-6.678-3.582-13.588-1.361-20.763.591-1.908-.743-4.333-.782-6.529l-.065-20.498-.976-46.084c-.025-1.166-.437-2.618.099-3.433.79-1.202 2.27-1.951 3.455-2.892.147 1.163.39 2.322.428 3.489l1.012 33.084c.02.666-.008 1.333.004 2L1151 997.11c.121 3.662 1.28 7.413 2.58 10.892 4.685 12.534 6.887 25.117-1.884 36.576-3.277 4.281-8.544 7.214-13.265 10.186-18.376 11.567-38.107 19.884-59.482 24.159-12.751 2.55-25.395 5.705-38.21 7.851-9.811 1.642-19.801 2.315-29.738 3.084l-45.254 2.99-55.167 1.915c-10.883.094-21.852-.615-32.653-1.987-19.618-2.494-39.556-4.247-57.97-12.045-12.342-5.227-24.09-11.908-35.922-18.275-8.481-4.563-16.698-9.623-24.963-14.577-4.426-2.653-8.882-5.315-13-8.406-4.507-3.382-5.56-8.579-6.21-13.891-.993-8.119 2.676-15.09 5.188-22.364.405-1.174.79-2.43.807-3.653l1.028-82.081c.034-2.833-.112-5.674.067-8.496.063-1.004.842-1.962 1.295-2.942.825.729 1.764 1.37 2.427 2.226.332.429.188 1.248.212 1.893.339 9.028.951 18.057.931 27.084-.024 10.695-.653 21.388-.904 32.085-.134 5.72-.414 11.479.066 17.162.764 9.048-1.497 17.293-5.03 25.461-2.857 6.606-1.151 12.827 4.049 17.386 8.445 7.404 17.007 14.794 26.23 21.161 11.929 8.235 24.4 15.731 36.977 22.954 3.766 2.163 8.636 2.511 13.068 3.328 1.069.197 3.104-.79 3.433-1.692.38-1.042-.22-3.104-1.117-3.837-4.427-3.613-9.235-6.76-13.642-10.395-6.951-5.734-13.983-11.688-14.929-21.441-.421-4.346-.034-8.963.99-13.216 2.215-9.199-.37-17.423-3.926-25.621-3.875-8.932-6.452-17.913-4.378-27.972 1.066-5.171-.197-10.776.286-16.123.583-6.456 1.779-12.869 2.945-19.257.77-4.219 3.005-4.845 7.228-3.46 14.258 4.677 28.614 9.111 43.098 13.026 10.561 2.854 21.354 4.891 32.1 7 5.313 1.042 10.74 1.799 16.144 2.037l57.166 1.923c14.72.057 29.511-.547 44.151-2.033 15.114-1.534 30.161-4.086 45.093-6.944 13.004-2.49 25.795-6.086 38.718-9.027 1.582-.36 4.813.103 4.873.527.376 2.645-1.127 3.088-3.288 1.795-.442.983-1.302 1.984-1.264 2.948l1.918 43.173c.136 3.161-.167 6.349.12 9.49.103 1.126 1.348 2.147 2.072 3.216.61-1.017 1.786-2.058 1.742-3.046l-1.893-36.175c-.144-2.826-.229-5.688.083-8.487.121-1.09 1.413-2.05 2.172-3.069l1.726 2.837c3.549 5.668 3.017 11.986 3.101 18.256.017 1.237 1.361 2.456 2.093 3.683.601-1.192 1.607-2.346 1.721-3.583.26-2.809-.135-5.682.16-8.484.189-1.793 1.159-3.498 1.734-5.257.433-1.324 1.203-2.698 1.117-4.004-.39-5.949-1.127-11.877-1.472-17.827-.052-.899 1.31-1.879 2.018-2.822.508.774 1.383 1.512 1.463 2.327.458 4.683.87 9.379 1.033 14.08l1.028 36.569zm-253 209c-9.807-1.667-19.356-2.52-28.36-5.202-11.78-3.509-23.426-7.83-34.554-13.031-6.896-3.224-12.81-8.617-19.002-13.253-4.124-3.087-8.187-6.329-11.834-9.949-1.911-1.896-3.694-4.632-4.082-7.207-.871-5.779-.866-11.693-1.121-17.557-.025-.585.612-1.2.942-1.801.337.594.818 1.149.988 1.787 1.402 5.257 2.054 10.839 4.25 15.733 4.622 10.299 13.699 16.678 22.879 22.359 12.09 7.481 24.927 13.652 38.747 17.393 2.703.732 5.722 1.208 8.433.777 3.594-.572 3.817-3.168 1.543-5.654-2.902-3.172-5.959-6.217-9.112-9.142-10.697-9.923-15.747-22.849-17.477-36.689-1.76-14.083-1.63-28.406-2.183-42.63-.085-2.178.342-4.479 1.056-6.542.35-1.012 1.902-1.608 2.911-2.392.659 1.134 2.034 2.393 1.861 3.382-1.264 7.235-2.449 14.262-1.101 21.809 1.323 7.407.777 15.136 1.31 22.705.099 1.412 1.425 2.738 2.185 4.104.24-1.414.684-2.827.689-4.242l.089-43.158c.005-.817.838-1.629 1.286-2.443.886 1.028 2.551 2.075 2.526 3.081-.127 5.169-.733 10.324-1.083 15.491-.32 4.721-.692 9.448-.722 14.175-.017 2.692.458 5.417.989 8.073.345 1.726 1.19 3.353 1.811 5.024.712-1.747 2.046-3.5 2.028-5.239-.075-7.196-.751-14.385-.821-21.581-.044-4.524.559-9.057.977-13.576.052-.565.748-1.071 1.146-1.604.269.495.663.964.775 1.492.135.638-.013 1.33.039 1.992l2.938 37.75c.333 5.033-.057 10.112.136 15.16.047 1.222 1.102 2.405 1.693 3.606.742-1.217 2.104-2.422 2.127-3.653l.099-28.49-.051-21.164c-.092-3.697 1.856-4.096 4.68-3.557 11.884 2.272 23.678 5.326 35.665 6.676 15.662 1.763 31.47 2.248 47.223 3.162 8.184.475 16.394 1.118 24.574.928 13.395-.31 26.779-1.169 40.16-1.926 9.727-.551 19.473-1.026 29.156-2.047 13.168-1.388 26.361-2.819 39.403-5.049 14.508-2.481 28.854-5.907 43.281-8.866 4.625-.948 6.757.912 6.932 5.534.24 6.364 1.364 12.781.836 19.069-1.368 16.28-2.732 32.754-10.98 47.372-3.782 6.704-8.662 12.831-13.418 18.928-3.309 4.243-4.06 6.95-.912 8.949 1.381.877 3.714 1.128 5.315.652 20.737-6.171 39.992-15.366 56.981-28.914 7.467-5.955 11.399-13.915 12.158-23.438.051-.636 0-1.343.264-1.887.553-1.139 1.284-2.192 1.943-3.28.263 1.167.688 2.324.765 3.504.774 11.898-4.52 20.674-13.207 28.516-7.875 7.109-15.98 13.804-25.584 18.068-9.693 4.303-19.768 8.027-30.01 10.742-13.904 3.686-28.103 6.289-42.227 9.097-4.098.815-8.372 1.007-12.568 1.029-19.717.102-39.439-.205-59.152.128-14.726.249-29.435 1.443-44.161 1.855-11.211.314-22.469.581-33.651-.077-12.313-.724-24.563-2.519-36.835-3.898-.391-.044-.721-.63-1.58-.963zm305.75-308.25c-2.099 9.653-9.619 13.7-16.825 18.305-23.732 15.167-49.312 25.848-76.777 31.884-15.18 3.336-30.444 6.363-45.769 8.949-9.483 1.6-19.128 2.57-28.738 3.017-20.873.972-41.784 2.226-62.651 1.826-15-.288-29.943-3.151-44.928-4.709-18.321-1.905-35.83-7.286-53.558-11.882-22.314-5.785-42.549-15.826-61.916-27.993a196.01 196.01 0 0 0-16.203-9.155c-4.014-2.018-5.634-5.485-6.299-9.337-1.246-7.211-.043-14.03 3.274-20.773 2.082-4.231 3.277-9.255 3.48-13.984.488-11.367.134-22.77.204-34.158.006-.915.656-1.826 1.008-2.739.649.782 1.82 1.535 1.865 2.35.377 6.811.578 13.633.766 20.453.086 3.135.007 6.275.044 9.412.009.795.366 1.619.242 2.377-1.052 6.436-.314 12.918-3.072 19.391-3.505 8.226-.243 16.316 6.026 22.163 5.634 5.254 12.02 9.993 18.764 13.706 13.786 7.589 28.013 14.38 42.119 21.379 1.91.948 4.141 1.35 6.273 1.697.906.147 1.942-.502 2.919-.789-.439-.985-.666-2.159-1.351-2.923-4.054-4.521-8.092-9.066-12.362-13.379-9.942-10.044-13.687-22.389-15.57-36.135-1.461-10.672 1.45-19.968 5.477-29.047 2.997-6.756 5.602-7.411 12.587-5.854 13.545 3.019 27.352 4.858 41.047 7.203l28.926 4.986c.486.083.999-.005 1.498.013l28.081.967 87.567.829c14.459-.171 28.872-2.776 43.343-3.707 13.487-.868 26.508-3.429 39.256-7.861 1.384-.481 4.431.896 5.261 2.278 2.767 4.61 5.904 9.386 7.05 14.512 3.783 16.915-1.155 32.35-11.019 45.913-4.502 6.191-11.196 10.802-16.972 16.045-2.028 1.841-5.109 3.343-3.574 6.622 1.598 3.415 4.648 2.599 7.513 1.409 16.918-7.029 34.154-13.391 50.656-21.287 9.609-4.598 19.155-10.34 25.166-19.867 5.634-8.93 8.391-16.922.356-24.746-4.044-3.938-3.127-10.198-2.808-15.654.03-.518 1.186-.971 1.819-1.455.35.581.948 1.135 1.013 1.746.736 6.932 3.392 13.07 6.141 19.47 2.257 5.253.74 12.128.646 18.534m-323.75 29.75c2.246 3.03 5.04 4.392 8.868 3.203.818-.254 1.847.198 2.783.293l5.348.505c-1.052-1.719-1.873-3.661-3.24-5.077-.854-.885-2.499-1.175-3.843-1.383-2.736-.422-5.515-.555-8.262-.915-1.153-.151-2.27-.577-3.403-.878.416 1.25.832 2.501 1.749 4.251m-2 7l2-1.073c-.955-1.597-1.738-3.333-2.898-4.764-2.944-3.636-5.992-7.195-9.146-10.649-.841-.921-2.215-1.356-3.344-2.014-.047 1.323-.476 2.79-.046 3.933.536 1.423 1.655 2.701 2.742 3.829 3.341 3.467 6.786 6.833 10.691 10.738z"/>
    <path d="M885.14 787.651c-4.235-1.083-8.201-2.023-12.209-2.722-4.532-.789-9.184-1.049-13.608-2.209-1.43-.375-3.093-2.779-3.279-4.41-.468-4.11-.267-8.315-.032-12.465.035-.613 1.826-1.75 2.609-1.603 11.25 2.115 22.41 4.765 33.709 6.549 9.661 1.526 19.524 1.754 29.204 3.183 20.325 3 40.756 2.016 61.129 1.72 9.956-.144 19.889-2.41 29.818-3.809l26.822-3.983c3.316-.493 4.744.674 4.655 4.287-.213 8.654-.555 17.353.065 25.967.646 8.962.634 17.841-2.284 26.278-2.251 6.51-5.546 12.733-9.048 18.689-.969 1.649-4.288 2.498-6.608 2.674-11.697.89-23.419 1.47-35.135 2.09-7.519.398-15.046.993-22.566.943-13.519-.09-27.037-.559-40.553-.945-9.19-.262-18.423-.182-27.552-1.104-11.682-1.181-23.278-3.216-34.911-4.879-.163-.023-.337.022-.498-.007-2.635-.469-6.646-.092-7.591-1.615-1.525-2.459-1.082-6.165-1.367-9.354-.133-1.487-.16-3.015.047-4.485.08-.571.933-1.47 1.444-1.477l21.152-.109c7.565-.217 10.74-5.45 12.723-11.84 2.747-8.852 2.86-17.247-4.203-24.388-.399-.404-1.116-.493-1.935-.979zm155 447.5c.672.994 1.768 2.527 2.492 2.368 19.386-4.259 38.414-9.678 56.69-17.58 9.977-4.313 18.907-9.973 26.746-17.589 7.372-7.163 10.446-16.263 12.71-25.751.822-3.446-.35-7.426.709-10.74 1.026-3.21 3.749-5.877 5.727-8.783.558.485 1.569.939 1.606 1.461.465 6.589 1.863 13.343.933 19.752-2.148 14.815-11.431 25.379-23.384 33.541-17.907 12.228-38.341 18.478-59.005 24.082l-34.557 9.479c-4.884 1.25-9.947 2.083-14.975 2.44-16.738 1.187-33.495 2.826-50.247 2.851-15.749.023-31.504-1.737-47.251-2.799-8.396-.566-16.77-1.614-25.172-1.921-18.188-.664-36.045-2.876-53.437-8.629-14.536-4.808-29.406-8.619-43.899-13.544-12.157-4.131-23.295-10.219-33.391-18.517-6.729-5.531-10.763-11.759-11.503-20.251-.089-1.015.403-2.08.625-3.121.788.844 1.977 1.557 2.305 2.552 4.72 14.357 17.274 19.304 29.52 24.381 11.805 4.894 24.152 8.573 35.671 14.032 9.692 4.593 19.15 9.424 29.766 11.436 1.889.358 3.856.661 5.751.517 1.469-.112 4.031-.846 4.097-1.505.174-1.732-.181-4.21-1.345-5.251-3.282-2.939-7.358-4.998-10.606-7.967-5.484-5.014-10.624-10.413-15.762-15.789-.656-.687-.883-2.413-.485-3.278.313-.68 1.953-1.188 2.909-1.062l21.188 3.128c3.263.514 6.483 1.616 9.749 1.738 21.217.799 42.539 2.999 63.64 1.703 33.749-2.073 67.478-.642 101.174-1.894 12.205-.453 24.294-3.899 36.453-5.874 1.313-.213 2.739.274 4.113.437-.577 1.04-.993 2.219-1.754 3.1l-26.824 30.904c-.383.442-.491 1.122-.977 1.942m-1.75-2.25c1.885-1.885 4.115-3.535 5.58-5.703 2.866-4.244 5.395-8.729 7.818-13.245.343-.64-.687-2.016-1.082-3.052-.939.687-2.502 1.218-2.718 2.085-1.9 7.613-6.303 13.482-12.109 18.518-.669.581-.753 1.835-1.109 2.778 1.04-.293 2.08-.587 3.62-1.38m-1-14c-1.167 1.833-2.131 3.843-3.546 5.46-2.264 2.587-4.891 4.853-7.214 7.392-.552.603-.509 1.751-.74 2.648.897.103 2.268.633 2.62.243 4.204-4.658 8.578-9.224 12.184-14.326 1.378-1.95-.55-3.084-3.303-1.417m-7.5 1.5c-.431-.167-1.132-.59-1.253-.463-3.251 3.418-6.485 6.857-9.587 10.409-.367.421.041 1.519.09 2.304.902-.069 2.253.219 2.636-.263 2.977-3.745 5.767-7.639 8.114-11.987zm-122.001-558.5c-1.224 1.609-1.949 3.218-2.673 4.827l6.018 1.141c.212.036.503-.541.748-.533l4.908.281c-1.364.761-2.67 1.669-4.107 2.249-2 .807-4.118 1.315-6.152 2.045-8.636 3.099-10.679 13.18-3.817 19.305 1.072.957 2.852 1.656 4.269 1.599 6.946-.282 13.894-.706 20.053-4.619 3.154-2.004 5.017-1.5 4.78 2.788l-1 23.078c-.086 2.502-.839 2.924-3.172 1.895-4.504-1.985-9.218-3.501-13.69-5.549-1.04-.476-1.922-2.252-2.075-3.526-.419-3.484-.967-6.073-5.558-6.113-4.061-.035-8.13-1.113-12.164-1.892-4.245-.82-6.513 1.955-8.3 4.836-4.616 7.443-5.97 8.202-14.47 7.211l-20.157-2.068c-1.181-.134-2.295-.86-3.439-1.312 1.107-1.214 2.026-3.153 3.358-3.497 3.076-.793 6.371-.692 9.534-1.212 1.1-.181 2.076-1.121 3.108-1.714-.719-1.073-1.247-2.847-2.189-3.105-5.716-1.564-11.502-2.901-17.312-4.085-7.442-1.517-14.698-.412-21.845 1.922-1.054.344-2.493.419-3.446-.032-1.824-.864-3.517-2.099-4.996-3.47-.165-.153 1.142-2.72 2.218-3.251 7.185-3.539 14.43-6.974 21.789-10.133 3.248-1.395 6.845-1.959 10.202-3.132 1-.349 1.727-1.483 2.578-2.257-1.066-.559-2.167-1.658-3.194-1.593-8.064.513-16.228.619-24.144 2.053-14.066 2.547-26.885 8.323-38.509 16.807-6.27 4.576-11.734 9.672-15.212 16.733-.566 1.149-1.923 1.908-2.915 2.847-.213-1.471-.934-3.09-.556-4.389 2.684-9.239 9.392-15.036 17.11-20.196 15.009-10.035 31.312-16.995 48.877-20.758 9.299-1.993 18.815-3.125 28.289-4.107 12.551-1.301 25.183-1.821 37.726-3.184 6.032-.655 11.934-2.493 17.907-3.741.95-.198 2.044-.374 2.924-.095 1.899.603 3.702 1.508 5.544 2.29-1.485.589-2.949 1.243-4.461 1.754-3.95 1.334-7.921 2.605-12.384 3.901z"/>
    <path d="M1131.64 716.651c6.289-14.411 3.386-23.525-12.025-32.552-9.239-5.411-19.43-9.4-29.544-13.06-12.199-4.415-24.739-7.911-37.201-11.565-3.32-.974-6.907-1.01-10.348-1.616-.868-.153-1.641-.841-2.458-1.283.653-.558 1.252-1.199 1.966-1.661 4.861-3.143 9.409.138 13.57 1.458 19.405 6.152 38.876 12.293 57.716 19.936 7.689 3.119 13.834 10.037 20.699 15.202 1.106.832 2.309 1.536 3.467 2.298-.553-1.491-.689-3.428-1.727-4.403-7.515-7.055-15.51-13.323-25.523-16.752-14.724-5.041-29.28-10.572-43.935-15.814-4.071-1.456-8.259-2.584-12.356-3.974-1.013-.344-1.879-1.124-2.812-1.704 1.159-.42 2.441-1.392 3.456-1.166 4.539 1.011 9.097 2.094 13.474 3.641 15.983 5.649 32.175 10.843 47.743 17.486 10.985 4.688 20.58 12.114 27.775 22.012 4.469 6.148 3.164 19.447-2.24 24.813-13.519 13.421-29.113 23.581-47.353 29.284-11.24 3.515-22.739 6.204-33.974 9.735-14.424 4.534-29.487 5.299-44.147 8.201-24.393 4.828-48.897 3.856-73.381 3.527-13.961-.188-27.92-2.237-41.831-3.862-11.348-1.325-22.632-3.21-33.922-4.989-1.676-.264-3.229-1.307-4.839-1.99 1.78-.317 3.597-1.042 5.334-.884l28.263 2.887c10.372.865 20.77 1.451 31.164 2.022 8.188.449 16.408 1.23 24.576.904 14.434-.575 28.881-1.474 43.243-2.998 13.727-1.457 27.368-3.773 41.016-5.911 16.245-2.546 32.585-4.706 48.646-8.145 15.174-3.25 29.524-9.111 41.166-19.906 2.575-2.387 4.091-5.917 6.344-9.17m-133.25 46.25l-25.106 2.028c-1.148.098-2.263.567-3.394.864 1.224.37 2.486 1.15 3.668 1.044l29.684-2.973c.912-.098 1.767-.722 2.649-1.102-.975-.287-1.962-.838-2.921-.794-1.205.056-2.387.6-4.579.933m142-49c.833-3.124 1.836-6.218 2.403-9.389.184-1.032-.769-2.267-1.202-3.409-.567.953-1.243 1.858-1.683 2.866l-6.293 14.739c-.167.398-.025.925-.027 1.393.584-.05 1.422.131 1.71-.187 1.604-1.77 3.075-3.661 5.092-6.011m-112 44l-6.489 1.813c-.025.007.121.836.173.834 2.331-.075 4.66-.191 6.988-.332.289-.018.571-.198.851-.316l2.976-1.261c-1.167-.246-2.333-.492-4.5-.738m24-4c-2.157.333-4.331.593-6.457 1.066-.394.088-.595 1.039-.885 1.592 1.756.114 3.621.636 5.233.208 1.205-.32 2.085-1.866 2.109-2.866z"/>
    <path d="M1062.89 742.901l-27.361 3.843-17.581 2.177c-1.543.201-3.051.908-4.582.931-4.598.07-8.755.713-12.15-4.662-3.643-5.769-10.568-8.167-17.417-9.252-5.353-.848-10.874-.923-16.081-2.266-1.955-.504-3.238-3.616-4.827-5.54 1.547-.743 3.036-1.953 4.649-2.15 7.024-.855 14.118-2.214 21.122-1.908 12.985.568 25.82-1.144 39.059 1.297 16.075 2.964 31.185 8.604 46.84 12.59.889.226 1.559 1.312 2.331 1.998-.977.647-1.891 1.707-2.942 1.867-3.493.533-7.035.742-11.058 1.075zm-244-10c12.343-2.333 24.101-5.441 36.056-6.744 8.87-.967 17.997.366 27.006.761 5.522.242 11.037.65 16.555.983s11.048.546 16.545 1.091c1.25.124 2.386 1.399 3.574 2.145-.911.588-1.759 1.53-2.745 1.706-6.22 1.114-12.449 2.222-18.715 3.015-7.451.943-12.81 3.736-13.151 13.117-.149 4.097-2.286 4.383-5.05 3.874-10.175-1.872-20.394-3.608-30.44-6.042-10.669-2.585-21.174-5.857-31.711-8.966-1.417-.418-2.6-1.63-3.891-2.475 1.295-.489 2.604-.943 3.878-1.482.567-.24 1.061-.651 2.089-.984z"/>
    <path d="M822.14 749.651c-21.935-6.04-43.097-13.027-61.104-27.126-4.333-3.392-5.356-8.573-4.975-13.345 1.026-12.849 6.676-22.877 18.84-28.975 8.602-4.312 16.248-10.632 25.01-14.492 9.561-4.211 19.917-6.617 29.924-9.816.693-.221 1.371-.489 2.055-.735-.677-.421-1.333-.88-2.037-1.25-.627-.33-1.307-.56-1.963-.835.705-.392 1.368-.99 2.122-1.145l20.339-4.005 23.898-3.861c5.519-.829 11.059-1.558 16.609-2.14 7.378-.773 14.771-1.436 22.17-1.969 1.694-.122 3.661.077 5.096.866 1.225.674 1.866 2.408 2.766 3.674-1.158.801-2.218 2.046-3.492 2.33-7.501 1.674-14.994 3.648-22.604 4.474-5.491.596-11.158-.449-16.747-.74-4.574-.238-9.169-.803-13.721-.572-6.075.308-12.121 1.217-18.17 1.945-.784.094-1.512.653-2.266.996.774.323 1.565.958 2.32.918 4.201-.225 8.39-.653 12.589-.91.681-.042 1.393.428 2.091.661-.664.433-1.283 1.14-1.999 1.259-8.436 1.398-16.946 2.414-25.32 4.106-14.8 2.99-28.912 8.034-41.95 15.753-6.582 3.897-13.037 8.019-19.44 12.207-7.174 4.693-11.456 11.325-12.262 19.936-.619 6.612 2.359 11.938 7.888 14.912 10.722 5.767 21.664 11.214 32.853 16.002 10.044 4.297 20.556 7.496 30.818 11.296.955.354 1.599 1.549 2.388 2.354-1.101.159-2.255.608-3.292.419-2.755-.501-5.459-1.277-8.434-2.194m15.25-94.75l2.5-.756c-1-.415-2-1.153-3-1.153s-2 .738-3 1.153c.833.252 1.667.504 3.5.756zm-43.5 120.002c1.748-5.215 5.38-3.2 8.072-2.293 8.592 2.894 17.059 6.167 25.527 9.414 11.181 4.288 22.876 6.216 34.647 7.912 5.6.807 11.228 1.673 16.68 3.124 1.939.516 4.425 2.644 4.765 4.403.299 1.547-1.69 4.04-3.29 5.363-6.342 5.243-14.253 3.83-21.095 2.76-11.906-1.862-23.687-5.129-35.173-8.872-8.129-2.649-15.602-7.253-23.529-10.605-4.977-2.105-5.258-6.622-6.604-11.207zm211.25-110.75c-5.853 2.417-11.415 4.696-17.07 6.716-4.837 1.727-8.96.349-11.334-5.025-.921-2.084.458-6.422 2.277-8.26 7.129-7.205 14.843-13.831 22.371-20.638.554-.501 1.469-.601 2.026-1.099l29.177-26.147c.495-.445.897-1.005 1.425-1.401 6.297-4.72 6.033-4.608 8.95 2.752 3.236 8.165 8.883 14.697 15.222 20.715 6.166 5.853 6.181 6.248-1.446 10.059-7.154 3.575-14.615 6.546-21.979 9.692l-29.619 12.636m33.25-18.25l14.994-5.982c3.218-1.239 4.68-2.375 1.512-5.675-3.986-4.151-7.533-8.761-10.95-13.408-2.546-3.463-5.151-3.708-8.295-1.175-2.263 1.824-4.36 3.859-6.67 5.617l-32.624 24.798c-4.513 3.576-8.47 7.903-12.36 12.179-.864.949-.38 3.125-.517 4.736 1.733-.03 3.647.411 5.168-.172 6.457-2.474 12.827-5.185 19.176-7.933l30.567-12.985zm-208.5 164l-30.326-10.053c-4.778-1.695-9.503-3.67-13.984-6.029-4.078-2.147-4.29-6.424-3.577-10.295.687-3.729 2.505-7.194 6.532-8.532.576-.191 2.277.891 2.25 1.308-.756 11.957 8.377 15.381 16.792 18.446 13.921 5.071 28.078 9.609 42.372 13.501 8.548 2.327 17.534 4.442 26.462 1.539 2.437-.792 4.407-2.998 6.622-4.51.753-.514 1.601-.889 2.405-1.327.15.937.466 1.882.424 2.811-.298 6.668-6.256 12.9-13.192 11.94-12.261-1.697-24.358-4.596-36.51-7.061-1.961-.398-3.849-1.15-6.271-1.739zm178-123c2.362-2.705 4.631-2.955 8.083-2.197 14.276 3.136 28.769 5.276 43.06 8.352 4.249.914 8.153 3.586 12.08 5.704.78.421.941 1.99 1.388 3.029-1.012.37-2.073 1.158-3.028 1.047l-29.892-3.765-21.651-3.207c-2.911-.475-6.138-.768-8.479-2.286-1.306-.847-1.089-4.041-1.559-6.677zm-49 15l-.998-12.579c-.294-3.632 1.139-5.734 5.033-5.38.875.08 1.703.683 2.552 1.045-.626.638-1.319 1.224-1.861 1.927-.643.833-1.799 1.98-1.59 2.61.42 1.263 1.42 2.894 2.536 3.247 2.394.756 5.038.67 7.536 1.153l25.364 5.147c.934.203 1.624 1.527 2.428 2.331-1.126.5-2.217 1.323-3.383 1.448-9.711 1.038-19.542 1.452-28.489 6.057-1.925.991-3.794 2.094-5.728 3.068-.819.412-1.739.624-2.613.927-.262-.835-.72-1.662-.75-2.506-.098-2.662-.036-5.329-.036-8.494zm-4.75-57.25c-.124 2.624-.331 5.041-.941 7.352-.303 1.147-1.506 2.026-2.015 3.156-.948 2.103-1.236 5.744-2.6 6.168-3.168.984-6.816.563-10.261.448-1.581-.053-4.931-3.941-5.933-5.807-1.108-2.064-2.663-3.884-3.82-5.926-1.852-3.269-.306-5.651 2.871-6.021 6.315-.735 12.706-.865 19.072-1.043 1.111-.031 2.25.925 3.626 1.675zm188 142c-3.008-7.559-2.81-14.936-1.351-22.522.882-4.589.736-9.372 1.108-14.063l2.084-24.158c.149-1.401 1.495-2.675 2.289-4.007.54 1.586 1.625 3.206 1.527 4.752-.457 7.236-1.332 14.444-1.879 21.675-.468 6.184-.597 12.393-1.053 18.578-.528 7.162.922 13.897 3.082 20.719 2.481 7.837.153 15.235-4.299 21.932-.564.849-1.833 1.228-2.776 1.825.006-1.393-.278-2.865.077-4.162.814-2.969 1.703-5.964 2.996-8.746 1.999-4.298-.099-7.848-1.805-11.823zm-391.25-58.75c.333 11.183-.278 22.005 1.27 32.508 1.503 10.202-2.926 19.262-3.12 28.952-.085 4.239 1.113 8.492 1.509 12.76.145 1.563-.343 3.185-.542 4.78-1.039-1.28-2.531-2.403-3.042-3.868-2.821-8.091-2.246-16.505-.857-24.652 1.246-7.312 2.033-14.307 1.019-21.812-1.061-7.847-.237-15.949-.237-23.94 0-3.496-.129-6.999.075-10.483.065-1.108 1.014-2.165 1.558-3.245.789 1.002 2.018 1.907 2.265 3.029.385 1.747.102 3.64.102 5.971zm184-60c11.158-2.188 21.703-.764 32.234 1.009.606.102 1.393.151 1.752.541 2.062 2.247 4.021 4.59 6.014 6.9-2.596.087-5.304.694-7.769.167-8.311-1.777-16.22-4.926-25.054-4.806-8.574.117-15.747 3.732-23.247 6.79-3.134 1.278-6.089 3.043-9.287 4.093-1.224.402-2.901-.574-4.372-.922.768-.924 1.35-2.287 2.334-2.704 8.925-3.783 17.92-7.402 27.394-11.068zm135 109c.667 9.541 1.907 18.585 1.855 27.622-.066 11.374-1.161 22.743-1.917 34.107-.051.762-.988 1.465-1.514 2.195-.475-1.134-1.351-2.265-1.362-3.404-.104-10.98.326-21.979-.167-32.937-.543-12.085-1.904-24.132-2.883-36.198-.094-1.157-.399-2.534.084-3.441.626-1.175 1.946-1.98 2.967-2.945.646 1.145 1.685 2.232 1.863 3.445.538 3.659.74 7.366 1.074 11.555zm25 29l.046-41.389c.025-3.189.485-6.397 1.049-9.542.143-.797 1.451-1.384 2.224-2.068.561.896 1.597 1.785 1.609 2.688l.038 27.593c-.177 9.838-.469 19.68-1.027 29.502-.326 5.727-1.218 11.426-2.001 17.118-.104.76-1.066 1.402-1.631 2.098-.435-.826-1.272-1.667-1.242-2.475.212-5.684.632-11.36.92-17.042.101-1.99.016-3.988.016-6.483zm-197.25-86.25c-.748.25-1.342.429-1.728.221-2.367-1.276-6.843-3.287-6.668-3.868 1.041-3.469 2.638-7.159 5.18-9.594.967-.926 6.242.473 7.308 2.2 4.58 7.415 12.463 8.986 19.399 12.254 1.932.911 4.2 1.136 6.077 2.125 1.13.596 1.804 2.059 2.683 3.132-1.42.34-3.058 1.315-4.223.914-6.377-2.192-12.56-4.969-18.977-7.017-2.721-.869-5.854-.451-9.049-.367zm161.5-2.5c7.471-4.138 14.571-8.275 21.946-11.844 7.755-3.753 15.777-6.953 23.677-10.41 3.386-1.481 6.692-3.179 10.166-4.407 1.263-.447 2.909.188 4.38.329-.853 1.027-1.497 2.498-2.591 3.013l-32.72 15.12c-9.457 4.564-18.666 9.639-28.083 14.291-1.146.566-2.898-.095-4.369-.187.794-1.052 1.404-2.358 2.426-3.094 1.484-1.069 3.265-1.727 5.169-2.81zm-23.25-10.25c-4.014-1.667-8.039-2.799-12.032-4.032-.721-.223-1.315-.857-1.968-1.301.708-.222 1.449-.708 2.119-.625l14.169 1.946 16.662 1.987c4.513.456 9.055.629 13.569 1.081.841.084 1.609.898 2.411 1.374-.903.523-1.842 1.551-2.703 1.49l-21.684-1.849c-3.243-.255-6.22-.389-8.955 2.585-2.727 2.965-6.429 5.107-9.92 7.259-1.376.849-3.336.751-5.03 1.084-.136-.91-.655-2.451-.351-2.634 4.507-2.728 9.123-5.275 13.713-8.366zm-52 38c3.456 1.289 6.451 2.497 9.346 3.911 1.012.495 1.777 1.497 2.654 2.268-1.015.607-1.975 1.59-3.057 1.751-3.49.519-7.036.654-10.541 1.089l-14.136 1.93c-1.387.157-2.843-.288-4.267-.457.823-1.155 1.547-2.403 2.507-3.43.608-.651 1.837-.782 2.329-1.472 3.671-5.152 8.772-6.366 15.164-5.591zm-46-59c1.274-1.226 2.547-1.953 3.821-2.679.393 1.334 1.109 2.664 1.126 4.003l.015 24.945c-.057 3.855 1.4 6.164 5.329 6.769.609.094 1.141.686 1.708 1.047-.624.305-1.229.824-1.875.883-8.253.748-11.89-3.94-11.157-13.93.502-6.834.699-13.691 1.032-21.038zm47-45c3.239-.315 4.207 1.425 2.328 2.902-2.538 1.996-5.015 4.64-9.364 3.274-3.755-1.179-8-.73-11.996-1.251-1.051-.137-1.982-1.199-2.968-1.837 1.122-1.029 2.151-2.789 3.384-2.947 3.274-.417 6.635-.141 9.962-.141h8.654zm-236.25 423.25c-.417-4.331-.646-8.412-.679-12.494-.005-.581.945-1.171 1.453-1.756.492.602 1.358 1.168 1.419 1.811l1.977 24.071c.161 2.989-.546 6.033-.968 9.037-.057.407-.759.723-1.163 1.081-.263-.499-.729-.985-.759-1.497l-1.281-20.253zm303.5-456.5c2.771 3.651 7.426 5.479 7.828 10.494.014.174 1.317.068 1.771.417 1.127.867 2.78 1.797 2.989 2.93.287 1.556-.562 3.321-.925 4.997-.971-.787-2.138-1.429-2.859-2.401-.745-1.004 1.351-5.088-2.746-2.279-.304.209-2.211-.925-2.197-1.4.149-4.937-4.497-6.781-6.439-10.326-.521-.951-1.342-1.804-1.606-2.811-.248-.944.06-2.034.123-3.059.937.537 1.933.997 2.787 1.643.465.352.69 1.021 1.274 1.796zm-107.25 120.25c-1.001 5.427-6.945 8.87-11.342 6.941-.727-.319-1.743-1.742-1.557-2.102 1.394-2.691 2.521-6.458 4.801-7.463 1.892-.834 6.592-2.835 8.099 2.624zm-130 87l-.059 15.494c-.033 1.179-.799 2.338-1.228 3.506-1.238-1.083-3.449-2.088-3.544-3.263-.4-4.966-.427-10.006.001-14.967.116-1.348 2.302-2.518 3.538-3.769.431.833.861 1.667 1.292 3zm-28-62c0 4.646.189 8.806-.128 12.927-.084 1.086-1.733 2.052-2.663 3.073-.403-1.021-1.131-2.035-1.155-3.065-.119-5.193-.32-10.412.087-15.576.146-1.852 2.28-5.222 2.879-5.088 3.468.775 1.467 3.254 1.003 5.244-.147.629-.023 1.321-.023 2.485zm48.25 6.75c.545.955 1.148 1.688 1.085 2.359-.357 3.805-.767 7.613-1.396 11.38-.206 1.231-1.123 2.343-1.715 3.51-1.337-1.571-3.548-3.009-3.814-4.744-.451-2.938.566-6.068.53-9.112-.046-3.905 1.506-5.019 5.31-3.394zm244.75-78.75c-4.064 2.23-7.59 4.525-11.225 6.632-.662.384-1.767.003-2.667-.025.398-.803.586-1.893 1.227-2.362 4.316-3.156 8.815-6.064 13.077-9.287 2.712-2.05 4.459-.881 6.215 1.169l-3.723 2.459c-.783.5-1.602.944-2.905 1.414zm-295 140l-.921-17.518c-.018-.45.875-.937 1.345-1.406.525.562 1.472 1.096 1.511 1.69l.99 20.008c.022.692-.991 1.417-1.524 2.127l-1.401-4.901zm-26.25-132.25c.954-.546 1.657-.843 2.361-1.139.006.586.26 1.359-.019 1.731-4.012 5.352-7.073 11.021-7.212 17.972-.017.85-1.671 1.668-2.566 2.5-.438-1.145-1.466-2.441-1.219-3.412 1.615-6.345 3.072-12.832 8.654-17.653zm136.5 55.5c2.813-1.25 5.323-2.454 7.967-3.145.992-.259 2.295.677 3.456 1.068l-2.554 1.833-8.133 6.509-2.744 2.226c-.564-1.93-1.541-3.869-1.502-5.787.017-.84 2.11-1.638 3.51-2.705zm-59.25 80.75c0 3.332.265 6.2-.111 8.982-.19 1.41-1.537 2.665-2.361 3.989-.51-1.269-1.392-2.52-1.458-3.812-.196-3.822-.201-7.667.005-11.488.067-1.248 1.008-2.449 1.549-3.671.792 1.333 1.634 2.641 2.345 4.017.204.394.031.984.031 1.983zm16 8c0 1.824.178 3.181-.052 4.463-.212 1.179-.865 2.278-1.323 3.412-.875-1.045-2.43-2.043-2.504-3.142-.292-4.339-.202-8.713-.023-13.064.024-.584 1.403-1.589 2.084-1.533.654.053 1.671 1.191 1.735 1.922.218 2.464.083 4.959.083 7.942zm.25-58.25c-.003 2.17-.257 4.09-.511 6.011-.568-.075-1.591-.047-1.635-.242-.453-1.992-1.046-4.025-1.014-6.036.045-2.864.564-5.723.92-8.579.121-.975.361-1.936.547-2.903.814.81 2.326 1.625 2.319 2.428-.024 3.026-.543 6.048-.626 9.322zm-41.25-19.75c.916-.917 1.833-1.334 2.749-1.751.417.985 1.223 1.988 1.18 2.952-.144 3.179-.493 6.359-.983 9.505-.177 1.133-.976 2.169-1.49 3.249-.818-1.315-2.293-2.615-2.324-3.948-.075-3.16.536-6.337.869-10.007zm-36.75-77.25c5.285-4.083 10.813-7.928 16.382-11.711.235-.16.854.246 1.294.388-.204.525-.253 1.303-.634 1.535-5.571 3.389-11.187 6.705-17.042 9.788zm318.75 272.25c-.333-3.831-.85-7.16-.9-10.495-.017-1.16 1.121-2.336 1.732-3.505.389 1.03 1.077 2.049 1.114 3.092.135 3.795.15 7.601-.003 11.395-.048 1.185-.771 2.343-1.185 3.513-.253-1.167-.505-2.333-.758-4zm-249-173c0-4.323-.113-8.152.079-11.965.048-.958 1.079-1.866 1.659-2.797.087.851.245 1.702.25 2.554l-.042 12.634c-.012.534-.755 1.05-1.159 1.575a8.22 8.22 0 0 1-.787-2zm-5-1l-.931-14.468c-.028-.497.426-1.021.656-1.532.659.401 1.882.789 1.893 1.206.128 5.198.079 10.399.076 15.6-.565-.102-1.129-.204-1.694-.806zm0 56l.055-9.446c.021-.532.763-1.036 1.172-1.554.258.503.73 1.002.738 1.509.064 3.645.084 7.292-.02 10.935-.015.529-.762 1.038-1.17 1.556-.259-.833-.517-1.667-.776-3zm228.75-200.75c-.75-1.675-1.462-3.076-1.631-4.539-.057-.488 1.212-1.435 1.996-1.602.493-.105 1.211.852 1.828 1.333-1.581 1.327 3.799 5.328-2.193 4.808zm-315.75 463.75c-.255 1.333-.509 2.167-.764 3-.412-.676-.907-1.318-1.204-2.042-.174-.424-.092-.986-.02-1.471l.748-4.487 1.24 5zm93-271l-.729 6c-.308-.051-.881-.082-.887-.157l-.384-6.284c.667-.02 1.333-.039 2 .441zm-25.75 266.25c.75.462 1.25 1.175 1.75 1.887l-1.341.863c-.22-.833-.439-1.667-.409-2.75zm-45.25 268.75c14.813 5.134 17.963 21.008 10.109 32.495-4.459 6.521-10.843 7.957-17.809 7.388-6.679-.545-13.761-7.365-15.337-13.202-2.89-10.704 1.714-20.212 8.081-24.218 4.469-2.811 9.471-2.615 14.956-2.464zm309-817c-9.769 1.264-19.808-7.634-19.038-19.149.729-10.89 8.107-17.586 17.832-17.796 9.698-.21 17.671 8.828 17.315 17.889-.449 11.45-5.752 18.405-16.109 19.056zm-314.75-30.25c.952 1.286 1.828 2.245 2.328 3.371 2.311 5.206 1.839 5.874-3.933 5.878-8.127.005-16.258-.163-24.377.087-3.017.093-3.482-.928-3.32-3.584.46-7.515 11.907-14.934 19.74-12.116 3.398 1.222 6.225 4.028 9.562 6.365zm116.75 5.25c3.442-8.579 9.261-12.679 17.41-11.91 6.122.578 12.367 3.755 15 12.601.908 3.052-.481 3.227-2.202 3.25-9.474.124-18.953.125-28.424-.091-.62-.014-1.19-2.183-1.784-3.85z"/>
</svg>